<?xml version="1.0" encoding="UTF-8"?>
<svg version="1.1" xmlns="http://www.w3.org/2000/svg" width="800" height="800">
<path d="M0 0 C1.13163574 0.00700928 1.13163574 0.00700928 2.28613281 0.01416016 C8.04757142 0.16774857 11.74614772 1.2474812 16.625 4.4375 C17.594375 4.80875 18.56375 5.18 19.5625 5.5625 C21.625 6.4375 21.625 6.4375 22.625 8.4375 C23.470625 8.9325 24.31625 9.4275 25.1875 9.9375 C25.991875 10.4325 26.79625 10.9275 27.625 11.4375 C27.625 12.0975 27.625 12.7575 27.625 13.4375 C28.615 13.4375 29.605 13.4375 30.625 13.4375 C30.893125 12.81875 31.16125 12.2 31.4375 11.5625 C32.625 9.4375 32.625 9.4375 35.625 7.4375 C36.615 7.4375 37.605 7.4375 38.625 7.4375 C38.955 6.4475 39.285 5.4575 39.625 4.4375 C40.94274196 4.04705794 42.28167272 3.72794914 43.625 3.4375 C44.91857422 2.68919922 44.91857422 2.68919922 46.23828125 1.92578125 C50.40759971 0.0935894 53.63776606 0.0264228 58.125 0.125 C59.22521484 0.12016602 59.22521484 0.12016602 60.34765625 0.11523438 C64.80912941 0.1591308 68.42520017 0.76954152 72.625 2.4375 C72.625 3.0975 72.625 3.7575 72.625 4.4375 C73.800625 4.6540625 73.800625 4.6540625 75 4.875 C77.625 5.4375 77.625 5.4375 79.625 6.4375 C79.625 7.0975 79.625 7.7575 79.625 8.4375 C80.21152344 8.52515625 80.79804688 8.6128125 81.40234375 8.703125 C86.3821335 10.34846854 89.59612894 16.01035627 92.5625 20.125 C93.7677692 22.74823298 93.86971161 24.58253123 93.625 27.4375 C94.285 27.7675 94.945 28.0975 95.625 28.4375 C97.06451108 34.4973773 96.65247702 39.56848759 94.625 45.4375 C94.11309327 47.7274034 93.64530038 50.02295433 93.1875 52.32421875 C92.59149856 54.56336305 91.71660698 56.39926509 90.625 58.4375 C90.295 59.159375 89.965 59.88125 89.625 60.625 C88.625 62.4375 88.625 62.4375 86.625 63.4375 C85.92348848 64.7528341 85.25974075 66.08867592 84.625 67.4375 C83.965 68.4275 83.305 69.4175 82.625 70.4375 C81.965 70.4375 81.305 70.4375 80.625 70.4375 C80.13 72.4175 80.13 72.4175 79.625 74.4375 C78.965 74.4375 78.305 74.4375 77.625 74.4375 C77.625 75.4275 77.625 76.4175 77.625 77.4375 C76.635 77.4375 75.645 77.4375 74.625 77.4375 C74.625 78.0975 74.625 78.7575 74.625 79.4375 C73.04205218 79.49187607 71.45855744 79.53046271 69.875 79.5625 C68.99328125 79.58570313 68.1115625 79.60890625 67.203125 79.6328125 C64.5114142 79.42889502 62.92595026 78.80301721 60.625 77.4375 C61.285 77.1075 61.945 76.7775 62.625 76.4375 C62.769375 75.81875 62.91375 75.2 63.0625 74.5625 C63.75193722 71.95795941 64.65890146 71.26316293 66.625 69.4375 C71.7451392 63.74845645 76.19794983 57.29160034 79.625 50.4375 C80.285 50.4375 80.945 50.4375 81.625 50.4375 C81.58375 49.550625 81.5425 48.66375 81.5 47.75 C81.625 44.4375 81.625 44.4375 82.6875 42 C84.7426916 36.3824763 82.11646076 30.15960332 80.63671875 24.57421875 C79.38505964 21.93075336 78.28176215 21.50649305 75.625 20.4375 C75.17125 19.963125 74.7175 19.48875 74.25 19 C69.16354365 14.10917658 63.09257361 13.3019829 56.375 13.375 C55.29734375 13.38402344 54.2196875 13.39304687 53.109375 13.40234375 C51.87960938 13.41974609 51.87960938 13.41974609 50.625 13.4375 C50.295 14.0975 49.965 14.7575 49.625 15.4375 C48.5525 15.664375 47.48 15.89125 46.375 16.125 C41.56411977 17.80880808 40.05719206 20.1179269 37.625 24.4375 C37.1609375 25.489375 37.1609375 25.489375 36.6875 26.5625 C34.95110825 29.62672074 32.43198547 31.3322609 29.625 33.4375 C28.965 33.4375 28.305 33.4375 27.625 33.4375 C25.8984375 31.5390625 25.8984375 31.5390625 24 29.0625 C23.36835937 28.25039063 22.73671875 27.43828125 22.0859375 26.6015625 C20.625 24.4375 20.625 24.4375 20.625 22.4375 C19.06081846 21.15286479 19.06081846 21.15286479 17.125 19.9375 C15.15625 18.65625 15.15625 18.65625 13.625 17.4375 C13.625 16.7775 13.625 16.1175 13.625 15.4375 C11.975 15.4375 10.325 15.4375 8.625 15.4375 C8.13 14.4475 8.13 14.4475 7.625 13.4375 C5.16637599 13.38366152 2.7089245 13.34390962 0.25 13.3125 C-0.44867188 13.29574219 -1.14734375 13.27898437 -1.8671875 13.26171875 C-3.70397486 13.24405733 -5.54101963 13.33446739 -7.375 13.4375 C-8.035 14.0975 -8.695 14.7575 -9.375 15.4375 C-12.08878954 16.8533902 -14.77108217 18.20264306 -17.625 19.3125 C-20.06738422 20.88260414 -20.41536907 22.76424242 -21.375 25.4375 C-22.035 25.7675 -22.695 26.0975 -23.375 26.4375 C-23.045 27.0975 -22.715 27.7575 -22.375 28.4375 C-22.68050781 29.0253125 -22.98601562 29.613125 -23.30078125 30.21875 C-24.62388361 32.95155778 -24.60817409 34.91470587 -24.5625 37.9375 C-24.55605469 38.8759375 -24.54960938 39.814375 -24.54296875 40.78125 C-24.3218486 44.27803377 -23.99078606 46.61645192 -21.875 49.4375 C-20.375 51.4375 -20.375 51.4375 -19.9375 53.375 C-19.13633568 56.31260252 -17.29711388 58.10766499 -15.375 60.4375 C-15.065625 61.0975 -14.75625 61.7575 -14.4375 62.4375 C-13.39309137 64.63894434 -13.39309137 64.63894434 -11.125 66.6875 C-8.39277291 69.41972709 -6.22866904 72.23460271 -4 75.375 C-0.54306743 80.19379939 -0.54306743 80.19379939 4.51769447 82.90662575 C6.84231595 83.09268801 9.12231428 83.12134771 11.4543457 83.09692383 C12.33289719 83.10740753 13.21144867 83.11789124 14.11662292 83.12869263 C17.01170247 83.15742387 19.90558478 83.15115339 22.80078125 83.14453125 C24.81147255 83.15764745 26.82215067 83.17295143 28.83280945 83.19035339 C34.11824485 83.23022528 39.40333574 83.24039528 44.68890381 83.24438477 C50.08502671 83.25371202 55.48094683 83.29112306 60.87695312 83.32617188 C71.45962593 83.39077011 82.04214729 83.4239919 92.625 83.4375 C92.955 84.4275 93.285 85.4175 93.625 86.4375 C94.285 86.1075 94.945 85.7775 95.625 85.4375 C96.27991024 82.66020773 96.27991024 82.66020773 96.6875 79.4375 C97.53008941 73.53241059 97.53008941 73.53241059 98.625 72.4375 C98.625 70.50509603 98.62147721 68.57212877 98.5625 66.640625 C98.68285969 62.39794607 99.86369393 58.56589421 101.1875 54.5625 C102.48071986 50.34088326 102.70271424 46.86721145 102.625 42.4375 C103.07318044 39.53845898 103.61604951 36.67006324 104.1875 33.79296875 C104.68587157 31.50906422 104.68587157 31.50906422 104.625 29.4375 C105.285 29.4375 105.945 29.4375 106.625 29.4375 C106.521875 28.344375 106.41875 27.25125 106.3125 26.125 C106.625 22.4375 106.625 22.4375 108.875 20.4375 C111.82739668 19.36390121 112.79565381 19.21144998 115.625 20.4375 C116.615 21.0975 117.605 21.7575 118.625 22.4375 C119.06640625 24.94140625 119.06640625 24.94140625 119.1875 28 C119.45779291 32.69633939 120.10179971 36.98482602 121.21875 41.54296875 C121.71809812 43.87165951 121.69094764 46.06338503 121.625 48.4375 C121.79 49.22125 121.955 50.005 122.125 50.8125 C122.625 53.4375 122.625 53.4375 122.5625 56.9375 C122.62415297 60.39006636 123.24595744 62.33465423 124.625 65.4375 C124.625 67.22928779 124.60963599 69.02133232 124.5625 70.8125 C124.53638842 73.38475847 124.53638842 73.38475847 125.125 75.625 C125.88184985 79.88228039 125.70036913 84.12471074 125.625 88.4375 C126.285 88.4375 126.945 88.4375 127.625 88.4375 C127.295 89.4275 126.965 90.4175 126.625 91.4375 C127.02883248 93.57809455 127.51941833 95.70292943 128.0625 97.8125 C129.08685778 101.80887339 129.81845657 105.30526762 129.625 109.4375 C131.88210999 106.05183501 131.67382793 104.35611271 131.56640625 100.41015625 C131.64420883 97.7908026 132.62522252 95.84872803 133.625 93.4375 C134.09777971 90.45091595 134.34906069 87.44774705 134.625 84.4375 C135.0763879 80.367844 135.63130509 76.41227964 136.625 72.4375 C136.625 71.1175 136.625 69.7975 136.625 68.4375 C137.285 68.4375 137.945 68.4375 138.625 68.4375 C138.955 66.1275 139.285 63.8175 139.625 61.4375 C141.8125 60.25 141.8125 60.25 144.625 59.4375 C148.52064245 60.82880087 149.48013086 62.14239619 151.3125 65.875 C151.745625 67.050625 152.17875 68.22625 152.625 69.4375 C153.27629797 70.77840759 153.94013275 72.11342331 154.625 73.4375 C154.934375 74.076875 155.24375 74.71625 155.5625 75.375 C155.913125 76.055625 156.26375 76.73625 156.625 77.4375 C157.14090698 78.71693481 157.14090698 78.71693481 157.66723633 80.0222168 C159.51295976 82.83878374 159.51295976 82.83878374 163.36206055 83.09692383 C164.91148287 83.13802276 166.46177046 83.15220957 168.01171875 83.14453125 C169.23723198 83.16721321 169.23723198 83.16721321 170.48750305 83.19035339 C173.09611392 83.23332961 175.70356997 83.24207742 178.3125 83.25 C180.08141112 83.27313677 181.85029463 83.2985004 183.61914062 83.32617188 C187.9545296 83.38912163 192.28919418 83.42137941 196.625 83.4375 C197.058125 84.3965625 197.058125 84.3965625 197.5 85.375 C198.45323451 87.58956079 198.45323451 87.58956079 200.625 88.4375 C200.07776317 91.81212715 199.5701 93.51985 197.625 96.4375 C195.74772644 96.78048706 195.74772644 96.78048706 193.43823242 96.73388672 C192.57360886 96.72332245 191.70898529 96.71275818 190.81816101 96.70187378 C189.88172256 96.67392731 188.94528412 96.64598083 187.98046875 96.6171875 C186.53756218 96.5881987 186.53756218 96.5881987 185.06550598 96.55862427 C183.02680949 96.51366752 180.98827029 96.46103 178.94995117 96.40136719 C175.8358468 96.31316129 172.72229713 96.25639181 169.60742188 96.203125 C167.62755768 96.15554247 165.6477366 96.10612292 163.66796875 96.0546875 C162.737603 96.03888641 161.80723724 96.02308533 160.84867859 96.00680542 C156.04814417 95.84491352 152.44098179 95.68963136 148.625 92.4375 C148.295 91.4475 147.965 90.4575 147.625 89.4375 C146.965 93.3975 146.305 97.3575 145.625 101.4375 C144.965 101.4375 144.305 101.4375 143.625 101.4375 C143.65980469 102.04335938 143.69460937 102.64921875 143.73046875 103.2734375 C143.91756167 109.06440898 143.12615907 113.5869621 141.28515625 119.05859375 C140.63698355 121.39431668 140.48358241 123.21569237 140.5625 125.625 C140.62863219 129.65906363 139.87192652 132.62337183 138.625 136.4375 C137.56622731 139.51934368 137.56622731 139.51934368 138.625 142.4375 C137.965 142.4375 137.305 142.4375 136.625 142.4375 C136.65980469 143.07816406 136.69460937 143.71882812 136.73046875 144.37890625 C136.9148667 150.27085972 136.44205235 154.23678797 133.625 159.4375 C131.625 161.4375 131.625 161.4375 129.25 161.875 C126.625 161.4375 126.625 161.4375 124.375 159.5 C122.38281732 156.0136803 122.04541771 153.5023068 121.7734375 149.55859375 C121.67557974 147.36689517 121.67557974 147.36689517 121.0625 145 C120.35182619 140.83748196 120.55138526 136.64989926 120.625 132.4375 C119.965 132.1075 119.305 131.7775 118.625 131.4375 C118.625 129.64571221 118.64036401 127.85366768 118.6875 126.0625 C118.62370247 123.38300365 118.18595709 121.05529975 117.625 118.4375 C116.62536034 112.56461702 116.27042959 106.68611874 115.90625 100.7421875 C115.66336349 97.88827102 115.2503457 95.22712806 114.625 92.4375 C113.46407749 86.48777214 113.08403675 80.47334486 112.625 74.4375 C111.965 74.4375 111.305 74.4375 110.625 74.4375 C110.46 75.71625 110.295 76.995 110.125 78.3125 C110.0321875 79.03179687 109.939375 79.75109375 109.84375 80.4921875 C109.5877515 82.44248344 109.5877515 82.44248344 109.625 84.4375 C108.45833333 94.77083333 108.45833333 94.77083333 106.625 98.4375 C105.77435907 101.75499961 105.51767878 103.11553635 106.625 106.4375 C105.965 106.4375 105.305 106.4375 104.625 106.4375 C103.965 108.7475 103.305 111.0575 102.625 113.4375 C99.655 113.9325 99.655 113.9325 96.625 114.4375 C96.625 113.7775 96.625 113.1175 96.625 112.4375 C95.965 112.4375 95.305 112.4375 94.625 112.4375 C94.625 111.7775 94.625 111.1175 94.625 110.4375 C93.965 110.4375 93.305 110.4375 92.625 110.4375 C92.191875 109.07625 92.191875 109.07625 91.75 107.6875 C90.08160603 102.82027162 90.08160603 102.82027162 87 98.8125 C86.54625 98.35875 86.0925 97.905 85.625 97.4375 C85.625 96.7775 85.625 96.1175 85.625 95.4375 C56.255 95.4375 26.885 95.4375 -3.375 95.4375 C-3.705 94.4475 -4.035 93.4575 -4.375 92.4375 C-4.973125 92.169375 -5.57125 91.90125 -6.1875 91.625 C-9.31165756 89.92902875 -10.49735305 87.40539356 -12.375 84.4375 C-14.02005006 82.65536244 -15.77108687 81.07536343 -17.5625 79.4375 C-19.375 77.4375 -19.375 77.4375 -19.375 74.4375 C-20.86 73.9425 -20.86 73.9425 -22.375 73.4375 C-23.5625 70.875 -23.5625 70.875 -24.375 68.4375 C-25.035 68.4375 -25.695 68.4375 -26.375 68.4375 C-27.35984108 66.69068707 -28.33766187 64.9399149 -29.3125 63.1875 C-29.85777344 62.21296875 -30.40304688 61.2384375 -30.96484375 60.234375 C-32.49113306 57.20716407 -33.375 54.8184579 -33.375 51.4375 C-34.035 51.4375 -34.695 51.4375 -35.375 51.4375 C-36.12741109 47.78293185 -36.77549704 44.12016103 -37.375 40.4375 C-37.705 40.4375 -38.035 40.4375 -38.375 40.4375 C-38.375 38.4575 -38.375 36.4775 -38.375 34.4375 C-37.715 34.4375 -37.055 34.4375 -36.375 34.4375 C-36.40980469 33.85742188 -36.44460937 33.27734375 -36.48046875 32.6796875 C-36.66120954 27.46402464 -36.3104578 23.95358892 -33.375 19.4375 C-32.715 19.1075 -32.055 18.7775 -31.375 18.4375 C-31.375 17.7775 -31.375 17.1175 -31.375 16.4375 C-30.715 16.4375 -30.055 16.4375 -29.375 16.4375 C-29.313125 15.86 -29.25125 15.2825 -29.1875 14.6875 C-28.04530797 11.52450669 -26.04357627 10.42341723 -23.375 8.4375 C-22.715 7.715625 -22.055 6.99375 -21.375 6.25 C-18.9775521 4.07731284 -17.52414792 3.96235799 -14.375 3.4375 C-13.50359375 2.9425 -12.6321875 2.4475 -11.734375 1.9375 C-7.63405983 0.1066616 -4.4310054 -0.05977252 0 0 Z M110.625 65.4375 C111.625 69.4375 111.625 69.4375 111.625 69.4375 Z M129.625 114.4375 C130.625 116.4375 130.625 116.4375 130.625 116.4375 Z " fill="#0DB198" transform="translate(96.375,319.5625)"/>
<path d="M0 0 C4.42594615 2.95063077 5.85750889 6.94039652 7 12 C7.96423735 14.68608977 9.00198452 17.00322485 10.5 19.4375 C12.13024709 22.22250544 13.0210236 24.93254063 14 28 C14.65035814 29.34136367 15.3162955 30.67532254 16 32 C16.66666667 33.66666667 17.33333333 35.33333333 18 37 C18.391875 37.721875 18.78375 38.44375 19.1875 39.1875 C19.455625 39.785625 19.72375 40.38375 20 41 C19.505 41.99 19.505 41.99 19 43 C19.7425 42.195625 20.485 41.39125 21.25 40.5625 C24.97160883 37.09463722 24.97160883 37.09463722 28 37 C29.68076231 37.63028587 31.34795544 38.29788106 33 39 C34.32 39 35.64 39 37 39 C37 39.66 37 40.32 37 41 C37.99 40.01 37.99 40.01 39 39 C41.625 38.875 41.625 38.875 44 39 C44 38.34 44 37.68 44 37 C42.68 37 41.36 37 40 37 C39.67 36.34 39.34 35.68 39 35 C37.081875 35.0309375 37.081875 35.0309375 35.125 35.0625 C31.25 35.125 31.25 35.125 29 34 C29 33.34 29 32.68 29 32 C28.1028125 31.9071875 28.1028125 31.9071875 27.1875 31.8125 C25 31 25 31 23.25 28.8125 C21.78868141 25.52453317 21.55447468 23.5642026 22 20 C23.3125 17.3125 23.3125 17.3125 25 15 C25.61875 14.13375 25.61875 14.13375 26.25 13.25 C28.93535473 11.33188948 31.77721992 11.35808668 35 11 C35.33 10.67 35.66 10.34 36 10 C40.72080896 9.66279936 44.50569507 10.61713695 49 12 C49.66 12 50.32 12 51 12 C51 12.66 51 13.32 51 14 C51.66 14 52.32 14 53 14 C53.495 15.485 53.495 15.485 54 17 C53.34 17.33 52.68 17.66 52 18 C52 18.99 52 19.98 52 21 C50.35 21.66 48.7 22.32 47 23 C46.505 22.01 46.505 22.01 46 21 C42.04 21 38.08 21 34 21 C36.05295434 24.07943151 36.65734795 24.79293121 40 26 C40.9075 25.896875 41.815 25.79375 42.75 25.6875 C47.84894504 26.17778318 50.80539055 29.13323868 54 33 C55.25 36.5625 55.25 36.5625 55 40 C52.61482405 44.96116598 50.02774227 46.92332384 45 49 C44.01 49.495 44.01 49.495 43 50 C40.73167291 50.12362239 38.45916213 50.17560648 36.1875 50.1875 C34.96417969 50.20167969 33.74085938 50.21585937 32.48046875 50.23046875 C28.96762914 49.99785647 25.59485202 49.59485202 23 47 C22.505 47.99 22.505 47.99 22 49 C18.37 49 14.74 49 11 49 C11 48.34 11 47.68 11 47 C10.34 47 9.68 47 9 47 C8.01 45.02 7.02 43.04 6 41 C-0.93 40.67 -7.86 40.34 -15 40 C-15.66 41.98 -16.32 43.96 -17 46 C-18.30078125 47.86328125 -18.30078125 47.86328125 -20 49 C-22.48046875 49.29296875 -22.48046875 49.29296875 -25.1875 49.1875 C-26.08855469 49.16042969 -26.98960937 49.13335937 -27.91796875 49.10546875 C-28.60503906 49.07066406 -29.29210937 49.03585937 -30 49 C-31 46 -31 46 -29.625 43 C-29.08875 42.01 -28.5525 41.02 -28 40 C-27.67 39.01 -27.34 38.02 -27 37 C-26.01 36.505 -26.01 36.505 -25 36 C-24.64080332 34.33871537 -24.31088368 32.67099977 -24 31 C-23.36525925 29.65117592 -22.70151152 28.3153341 -22 27 C-21.67 26.01 -21.34 25.02 -21 24 C-20.34 24 -19.68 24 -19 24 C-18.34 21.03 -17.68 18.06 -17 15 C-16.34 15 -15.68 15 -15 15 C-15.33 14.01 -15.66 13.02 -16 12 C-15.2578125 10.0625 -15.2578125 10.0625 -14.125 8 C-12.84169028 5.63081282 -11.85840339 3.57521017 -11 1 C-7.41734011 -1.75589222 -4.21553104 -0.91975223 0 0 Z M-4 14 C-3 16 -3 16 -3 16 Z M-6 15 C-6.33 17.64 -6.66 20.28 -7 23 C-7.99 23.33 -8.98 23.66 -10 24 C-10 25.65 -10 27.3 -10 29 C-6.04 29.33 -2.08 29.66 2 30 C1.73146284 23.55510814 -0.66963524 19.73633646 -5 15 C-5.33 15 -5.66 15 -6 15 Z M-14 38 C-14 38.33 -14 38.66 -14 39 C-11.69 39 -9.38 39 -7 39 C-7 38.67 -7 38.34 -7 38 C-9.31 38 -11.62 38 -14 38 Z " fill="#33343E" transform="translate(567,380)"/>
<path d="M0 0 C2.0078125 0.1328125 2.0078125 0.1328125 5.0078125 1.1328125 C5.0078125 3.7728125 5.0078125 6.4128125 5.0078125 9.1328125 C6.709375 9.101875 6.709375 9.101875 8.4453125 9.0703125 C12.0078125 9.1328125 12.0078125 9.1328125 13.0078125 10.1328125 C13.1328125 13.6328125 13.1328125 13.6328125 13.0078125 17.1328125 C12.0078125 18.1328125 12.0078125 18.1328125 8.4453125 18.1953125 C7.3109375 18.1746875 6.1765625 18.1540625 5.0078125 18.1328125 C4.92709462 20.92505323 4.86745842 23.71497816 4.8203125 26.5078125 C4.79517578 27.301875 4.77003906 28.0959375 4.74414062 28.9140625 C4.71776845 30.98867398 4.85294788 33.06382115 5.0078125 35.1328125 C5.9978125 35.7928125 6.9878125 36.4528125 8.0078125 37.1328125 C9.3278125 36.4728125 10.6478125 35.8128125 12.0078125 35.1328125 C14.0078125 38.1328125 14.0078125 38.1328125 14.0078125 41.1328125 C14.6678125 41.1328125 15.3278125 41.1328125 16.0078125 41.1328125 C15.3478125 42.4528125 14.6878125 43.7728125 14.0078125 45.1328125 C13.3478125 45.1328125 12.6878125 45.1328125 12.0078125 45.1328125 C12.0078125 45.7928125 12.0078125 46.4528125 12.0078125 47.1328125 C8.0478125 47.1328125 4.0878125 47.1328125 0.0078125 47.1328125 C0.0078125 46.4728125 0.0078125 45.8128125 0.0078125 45.1328125 C-0.9821875 44.8028125 -1.9721875 44.4728125 -2.9921875 44.1328125 C-2.9921875 43.4728125 -2.9921875 42.8128125 -2.9921875 42.1328125 C-3.6521875 42.1328125 -4.3121875 42.1328125 -4.9921875 42.1328125 C-4.9921875 41.4728125 -4.9921875 40.8128125 -4.9921875 40.1328125 C-5.6521875 40.1328125 -6.3121875 40.1328125 -6.9921875 40.1328125 C-9.31179243 33.17399772 -7.82923594 25.29256615 -6.9921875 18.1328125 C-8.1678125 18.225625 -8.1678125 18.225625 -9.3671875 18.3203125 C-10.2334375 18.2584375 -11.0996875 18.1965625 -11.9921875 18.1328125 C-12.6521875 17.1428125 -13.3121875 16.1528125 -13.9921875 15.1328125 C-14.765625 16.15375 -14.765625 16.15375 -15.5546875 17.1953125 C-17.9921875 19.1328125 -17.9921875 19.1328125 -21.2421875 18.8828125 C-22.4796875 18.6353125 -23.7171875 18.3878125 -24.9921875 18.1328125 C-27.66689972 18.03444305 -30.31452114 18.0858359 -32.9921875 18.1328125 C-30.69900004 21.57259368 -29.83395916 21.93759465 -25.9921875 23.1328125 C-24.8578125 23.2359375 -23.7234375 23.3390625 -22.5546875 23.4453125 C-19.09149477 24.11364794 -16.73966485 24.94856219 -14.08203125 27.32421875 C-11.77833751 31.14719438 -12.58648179 35.84285025 -12.9921875 40.1328125 C-13.6521875 40.1328125 -14.3121875 40.1328125 -14.9921875 40.1328125 C-14.9921875 40.7928125 -14.9921875 41.4528125 -14.9921875 42.1328125 C-19.02669975 46.36905037 -22.06076805 47.44831322 -27.96289062 47.62646484 C-28.67380859 47.62855957 -29.38472656 47.6306543 -30.1171875 47.6328125 C-30.81005859 47.63877441 -31.50292969 47.64473633 -32.21679688 47.65087891 C-36.65342851 47.54326608 -39.415879 46.72913611 -42.9921875 44.1328125 C-43.9821875 43.4728125 -44.9721875 42.8128125 -45.9921875 42.1328125 C-45.71902887 38.76385601 -45.37877115 37.47521516 -42.8046875 35.1953125 C-39.12986886 33.80704768 -37.54767658 34.66424092 -33.9921875 36.1328125 C-33.0021875 36.1328125 -32.0121875 36.1328125 -30.9921875 36.1328125 C-30.9921875 36.7928125 -30.9921875 37.4528125 -30.9921875 38.1328125 C-30.095 37.6378125 -30.095 37.6378125 -29.1796875 37.1328125 C-26.9921875 36.1328125 -26.9921875 36.1328125 -23.9921875 36.1328125 C-24.3221875 34.8128125 -24.6521875 33.4928125 -24.9921875 32.1328125 C-25.75144531 32.15601563 -26.51070312 32.17921875 -27.29296875 32.203125 C-28.28683594 32.22117187 -29.28070312 32.23921875 -30.3046875 32.2578125 C-31.78388672 32.29261719 -31.78388672 32.29261719 -33.29296875 32.328125 C-35.9921875 32.1328125 -35.9921875 32.1328125 -38.9921875 30.1328125 C-38.9921875 29.4728125 -38.9921875 28.8128125 -38.9921875 28.1328125 C-40.3121875 27.8028125 -41.6321875 27.4728125 -42.9921875 27.1328125 C-44.9921875 19.5078125 -44.9921875 19.5078125 -44.9921875 16.1328125 C-44.3321875 15.4728125 -43.6721875 14.8128125 -42.9921875 14.1328125 C-42.2496875 13.2871875 -41.5071875 12.4415625 -40.7421875 11.5703125 C-37.66725921 8.84480788 -35.99996907 8.49715628 -31.9921875 8.1328125 C-31.6621875 7.8028125 -31.3321875 7.4728125 -30.9921875 7.1328125 C-26.71069427 6.84089251 -23.90323473 7.48605577 -19.9921875 9.1328125 C-18.6721875 9.1328125 -17.3521875 9.1328125 -15.9921875 9.1328125 C-15.9921875 9.7928125 -15.9921875 10.4528125 -15.9921875 11.1328125 C-14.6721875 11.1328125 -13.3521875 11.1328125 -11.9921875 11.1328125 C-11.9921875 10.4728125 -11.9921875 9.8128125 -11.9921875 9.1328125 C-10.3421875 9.1328125 -8.6921875 9.1328125 -6.9921875 9.1328125 C-7.0128125 7.8334375 -7.0334375 6.5340625 -7.0546875 5.1953125 C-7.07618204 3.84115617 -7.06366949 2.48525167 -6.9921875 1.1328125 C-5.11159717 -0.74777783 -2.49328712 0.00920032 0 0 Z " fill="#33343F" transform="translate(720.9921875,382.8671875)"/>
<path d="M0 0 C0.680625 -0.01675781 1.36125 -0.03351563 2.0625 -0.05078125 C4.60843617 0.42658178 5.37523204 1.32251772 7 3.3125 C7.43237305 5.21362305 7.43237305 5.21362305 7.51171875 7.32421875 C7.54483154 8.00701904 7.57794434 8.68981934 7.61206055 9.39331055 C7.63695557 10.25351807 7.66185059 11.11372559 7.6875 12 C7.790625 14.743125 7.89375 17.48625 8 20.3125 C13.61 20.3125 19.22 20.3125 25 20.3125 C24.94779297 18.39824219 24.94779297 18.39824219 24.89453125 16.4453125 C24.86639769 14.77605479 24.83909707 13.1067829 24.8125 11.4375 C24.78736328 10.59574219 24.76222656 9.75398438 24.73632812 8.88671875 C24.72666016 8.08105469 24.71699219 7.27539062 24.70703125 6.4453125 C24.6913208 5.70168457 24.67561035 4.95805664 24.65942383 4.19189453 C24.77181396 3.57169434 24.8842041 2.95149414 25 2.3125 C28.16942884 0.19954744 28.99629953 0.05999071 32.625 0.125 C33.42164063 0.13144531 34.21828125 0.13789063 35.0390625 0.14453125 C37 0.3125 37 0.3125 38 1.3125 C38.09839214 2.8418463 38.12798539 4.37569566 38.12939453 5.90820312 C38.13254669 6.88591675 38.13569885 7.86363037 38.13894653 8.87097168 C38.1369223 9.93448853 38.13489807 10.99800537 38.1328125 12.09375 C38.13376923 13.17756958 38.13472595 14.26138916 38.13571167 15.37805176 C38.13639365 17.6747239 38.13453811 19.97139795 38.13037109 22.26806641 C38.12502312 25.79724428 38.1303155 29.32629487 38.13671875 32.85546875 C38.13605797 35.08072945 38.13477682 37.30599007 38.1328125 39.53125 C38.13483673 40.59476685 38.13686096 41.65828369 38.13894653 42.75402832 C38.13421829 44.22059875 38.13421829 44.22059875 38.12939453 45.71679688 C38.12859894 46.58203979 38.12780334 47.44728271 38.12698364 48.33874512 C38 50.3125 38 50.3125 37 51.3125 C35.0390625 51.515625 35.0390625 51.515625 32.625 51.5625 C31.83351563 51.58828125 31.04203125 51.6140625 30.2265625 51.640625 C28 51.3125 28 51.3125 26.22265625 50.30859375 C24.26642502 47.1148744 24.69013341 43.74510187 24.8125 40.125 C24.874375 37.546875 24.93625 34.96875 25 32.3125 C19.06 32.3125 13.12 32.3125 7 32.3125 C7.07891712 37.44320839 7.07891712 37.44320839 7.18017578 42.57348633 C7.20976568 46.37769761 7.15714554 48.07678169 5 51.3125 C2.94140625 51.67578125 2.94140625 51.67578125 0.5625 51.625 C-0.21996094 51.62113281 -1.00242187 51.61726563 -1.80859375 51.61328125 C-4 51.3125 -4 51.3125 -7 49.3125 C-7.38095093 47.30114746 -7.38095093 47.30114746 -7.38818359 44.80273438 C-7.39764008 43.86836548 -7.40709656 42.93399658 -7.4168396 41.97131348 C-7.40773056 40.45410706 -7.40773056 40.45410706 -7.3984375 38.90625 C-7.40130768 37.87060913 -7.40417786 36.83496826 -7.40713501 35.76794434 C-7.40917895 33.57559666 -7.40362612 31.38323089 -7.39111328 29.19091797 C-7.37506479 25.82608444 -7.39095136 22.4624522 -7.41015625 19.09765625 C-7.40817388 16.9713515 -7.40433033 14.84504751 -7.3984375 12.71875 C-7.40451019 11.70727905 -7.41058289 10.69580811 -7.4168396 9.65368652 C-7.40738312 8.71931763 -7.39792664 7.78494873 -7.38818359 6.82226562 C-7.38579681 5.99778931 -7.38341003 5.17331299 -7.38095093 4.32385254 C-7.25523712 3.6601062 -7.12952332 2.99635986 -7 2.3125 C-4.03082597 0.33305064 -3.34297721 0.01899419 0 0 Z " fill="#2E2E39" transform="translate(324,378.6875)"/>
<path d="M0 0 C11 0 11 0 13 1 C13 1.66 13 2.32 13 3 C12.34 3 11.68 3 11 3 C11 6.63 11 10.26 11 14 C15.63019987 13.5547002 15.63019987 13.5547002 17 12 C23.38500236 11.43991207 27.6026839 12.52848683 33 16 C37.45849604 20.45849604 38.19280778 25.05722723 38.29296875 31.15234375 C38.27318532 33.4142492 38.23763986 35.67606381 38.1875 37.9375 C38.16719727 39.67870117 38.16719727 39.67870117 38.14648438 41.45507812 C38.1113141 44.30387052 38.06209287 47.15168844 38 50 C35.37670316 51.31164842 33.36301375 51.13262846 30.4375 51.125 C29.44621094 51.12757813 28.45492187 51.13015625 27.43359375 51.1328125 C25 51 25 51 24 50 C23.94946999 48.48391251 23.96436201 46.96552565 24.0078125 45.44921875 C24.02457031 44.52302734 24.04132812 43.59683594 24.05859375 42.64257812 C24.10260569 40.68404677 24.15459455 38.72567724 24.21484375 36.76757812 C24.22902344 35.83751953 24.24320313 34.90746094 24.2578125 33.94921875 C24.2798877 33.09674561 24.30196289 32.24427246 24.32470703 31.3659668 C23.9267573 28.46631956 22.95307081 27.1433746 21 25 C19.17576488 23.75225614 19.17576488 23.75225614 17 24 C14.22877725 26.35426499 14.22877725 26.35426499 12 29 C12.33 29.33 12.66 29.66 13 30 C13.08669432 31.4887186 13.10703494 32.981445 13.09765625 34.47265625 C13.09443359 35.37177734 13.09121094 36.27089844 13.08789062 37.19726562 C13.07951172 38.14279297 13.07113281 39.08832031 13.0625 40.0625 C13.05798828 41.01189453 13.05347656 41.96128906 13.04882812 42.93945312 C13.0370011 45.29303065 13.02052025 47.64648477 13 50 C11 51 11 51 0 51 C0 34.17 0 17.34 0 0 Z " fill="#2C2B36" transform="translate(497,378)"/>
<path d="M0 0 C6.94954364 0.12387778 11.31481393 2.3033977 16.3125 7.1875 C18.34422454 11.11524713 18.49663251 14.20230412 18.2890625 18.58203125 C18.2375 19.78408203 18.1859375 20.98613281 18.1328125 22.22460938 C18.06835938 23.47048828 18.00390625 24.71636719 17.9375 26 C17.85242188 27.89782227 17.85242188 27.89782227 17.765625 29.83398438 C17.62441298 32.95241646 17.47302192 36.07001205 17.3125 39.1875 C15.72926312 39.214693 14.14588938 39.23398306 12.5625 39.25 C11.68078125 39.26160156 10.7990625 39.27320313 9.890625 39.28515625 C7.5306162 39.19576198 5.56751476 38.85662821 3.3125 38.1875 C3.3125 38.8475 3.3125 39.5075 3.3125 40.1875 C-9.20115539 41.38926873 -9.20115539 41.38926873 -14.5 37.3125 C-17.45834672 34.2733581 -18.17652809 32.0935121 -18.25 27.875 C-18.06172895 25.25923409 -17.86038408 23.53326815 -16.6875 21.1875 C-16.0275 21.1875 -15.3675 21.1875 -14.6875 21.1875 C-14.6875 20.5275 -14.6875 19.8675 -14.6875 19.1875 C-14.0275 19.1875 -13.3675 19.1875 -12.6875 19.1875 C-12.3575 18.5275 -12.0275 17.8675 -11.6875 17.1875 C-8.9178041 16.45863266 -6.55887415 16.1875 -3.6875 16.1875 C-3.6875 15.5275 -3.6875 14.8675 -3.6875 14.1875 C-1.3775 14.1875 0.9325 14.1875 3.3125 14.1875 C-0.11683699 12.31695255 -1.38278366 12.10731149 -5.25 13.125 C-6.384375 13.475625 -7.51875 13.82625 -8.6875 14.1875 C-11.125 13.8125 -11.125 13.8125 -12.6875 13.1875 C-12.6875 12.1975 -12.6875 11.2075 -12.6875 10.1875 C-13.3475 10.1875 -14.0075 10.1875 -14.6875 10.1875 C-15.69266936 7.62888709 -15.84942618 6.56532775 -14.75 4 C-11.62955076 1.25778703 -8.78714993 1.51811693 -4.6875 1.1875 C-3.6875 0.1875 -3.6875 0.1875 0 0 Z M-4.6875 24.1875 C-4.6875 25.8375 -4.6875 27.4875 -4.6875 29.1875 C-2.8003125 29.2184375 -2.8003125 29.2184375 -0.875 29.25 C-0.16730469 29.26160156 0.54039062 29.27320313 1.26953125 29.28515625 C3.51555461 29.27013217 3.51555461 29.27013217 6.3125 28.1875 C5.9825 27.1975 5.6525 26.2075 5.3125 25.1875 C2.0125 24.8575 -1.2875 24.5275 -4.6875 24.1875 Z " fill="#2F2C39" transform="translate(425.6875,389.8125)"/>
<path d="M0 0 C3.67107775 2.47566378 6.40414059 4.88276361 8.5 8.8125 C9 12 9 12 8 21 C0.08 21.33 -7.84 21.66 -16 22 C-9.94538447 25.63276932 -7.71380669 24.90781941 -1.1875 23.3125 C-0.465625 23.209375 0.25625 23.10625 1 23 C2.92817889 24.92817889 4.53619796 26.69973965 6 29 C5.67 29.99 5.34 30.98 5 32 C4.01 32 3.02 32 2 32 C2 32.66 2 33.32 2 34 C1.34 34 0.68 34 0 34 C0 34.66 0 35.32 0 36 C-3.5224754 37.07918977 -6.82759801 37.16644265 -10.5 37.1875 C-11.6240625 37.20167969 -12.748125 37.21585937 -13.90625 37.23046875 C-18.07751449 36.91973061 -20.0726998 35.9273002 -23 33 C-23.61875 32.4225 -24.2375 31.845 -24.875 31.25 C-29.23759401 26.63078282 -31.275038 23.49802017 -31.5 17.0625 C-31.2806714 10.51513507 -29.52170691 7.12691657 -25.4375 2.0625 C-24 1 -24 1 -21 1 C-20.67 0.34 -20.34 -0.32 -20 -1 C-12.97051081 -3.67120589 -6.82775681 -2.9871436 0 0 Z M-13 7 C-13.33 7.99 -13.66 8.98 -14 10 C-14.66 10 -15.32 10 -16 10 C-16 10.99 -16 11.98 -16 13 C-12.04 13 -8.08 13 -4 13 C-4.66 12.01 -5.32 11.02 -6 10 C-6.66 10 -7.32 10 -8 10 C-8.33 9.01 -8.66 8.02 -9 7 C-10.32 7 -11.64 7 -13 7 Z " fill="#312F3A" transform="translate(398,393)"/>
<path d="M0 0 C3.20395121 0.62568744 4.94651085 2.28279206 7.3203125 4.453125 C6.58598379 9.4098438 3.60391254 12.45129083 -0.2421875 15.453125 C-2.77734959 17.29964297 -2.77734959 17.29964297 -4.1171875 19.890625 C-6.12266816 23.17961328 -8.67838264 25.06433133 -11.6796875 27.453125 C-12.4221875 28.21625 -13.1646875 28.979375 -13.9296875 29.765625 C-15.6796875 31.453125 -15.6796875 31.453125 -17.6796875 31.453125 C-18.0096875 32.773125 -18.3396875 34.093125 -18.6796875 35.453125 C-19.3396875 35.453125 -19.9996875 35.453125 -20.6796875 35.453125 C-21.3396875 36.773125 -21.9996875 38.093125 -22.6796875 39.453125 C-23.3396875 39.453125 -23.9996875 39.453125 -24.6796875 39.453125 C-25.0096875 40.443125 -25.3396875 41.433125 -25.6796875 42.453125 C-32.92156476 43.06684341 -32.92156476 43.06684341 -36.3046875 40.328125 C-37.0884375 39.379375 -37.8721875 38.430625 -38.6796875 37.453125 C-39.77622732 36.38275558 -40.88052468 35.32027947 -41.9921875 34.265625 C-44.6796875 31.453125 -44.6796875 31.453125 -44.6796875 29.453125 C-45.9996875 28.793125 -47.3196875 28.133125 -48.6796875 27.453125 C-48.6796875 26.793125 -48.6796875 26.133125 -48.6796875 25.453125 C-49.6696875 25.123125 -50.6596875 24.793125 -51.6796875 24.453125 C-52.9296875 21.515625 -52.9296875 21.515625 -53.6796875 18.453125 C-53.3496875 17.793125 -53.0196875 17.133125 -52.6796875 16.453125 C-52.0196875 16.453125 -51.3596875 16.453125 -50.6796875 16.453125 C-50.3496875 15.463125 -50.0196875 14.473125 -49.6796875 13.453125 C-48.6896875 13.123125 -47.6996875 12.793125 -46.6796875 12.453125 C-40.47430431 15.74156532 -35.47376551 21.42954325 -30.6796875 26.453125 C-27.00279446 24.9252836 -24.77769942 22.69684994 -22.0546875 19.828125 C-20.63458623 18.33253662 -19.18373782 16.86426102 -17.6796875 15.453125 C-17.0196875 15.453125 -16.3596875 15.453125 -15.6796875 15.453125 C-15.34904297 14.64101563 -15.34904297 14.64101563 -15.01171875 13.8125 C-13.23801725 10.67081171 -10.88335026 8.24936141 -8.3671875 5.703125 C-7.89345703 5.19652344 -7.41972656 4.68992187 -6.93164062 4.16796875 C-4.68274962 1.8852367 -3.2030173 0.54161809 0 0 Z " fill="#10B198" transform="translate(296.6796875,322.546875)"/>
<path d="M0 0 C1.65919896 0.36871088 3.3247643 0.71281674 5 1 C5 1.66 5 2.32 5 3 C5.66 3.33 6.32 3.66 7 4 C6.34 5.32 5.68 6.64 5 8 C4.34 8 3.68 8 3 8 C3 8.99 3 9.98 3 11 C2.34 11 1.68 11 1 11 C1 10.34 1 9.68 1 9 C-1.1462026 9.14029419 -3.29196218 9.28738164 -5.4375 9.4375 C-6.63246094 9.51871094 -7.82742188 9.59992188 -9.05859375 9.68359375 C-11.88570244 9.67656114 -11.88570244 9.67656114 -13 11 C-11.35 11.33 -9.7 11.66 -8 12 C-8 12.66 -8 13.32 -8 14 C-6.453125 13.87625 -6.453125 13.87625 -4.875 13.75 C-0.37188097 14.04052381 1.59768808 15.09558739 5 18 C5 18.99 5 19.98 5 21 C5.66 21.33 6.32 21.66 7 22 C8 23 8 23 8.125 25.375 C8 28 8 28 7 31 C6.195625 31.309375 5.39125 31.61875 4.5625 31.9375 C1.84881583 32.73030023 1.84881583 32.73030023 1 35.0625 C0.67 35.701875 0.34 36.34125 0 37 C-3.66054092 38.01972211 -7.2145492 38.16335809 -11 38.1875 C-12.5159375 38.20876953 -12.5159375 38.20876953 -14.0625 38.23046875 C-18.76154402 37.86179375 -22.53464846 36.20865883 -26 33 C-26 32.01 -26 31.02 -26 30 C-25.34 29.67 -24.68 29.34 -24 29 C-23.67 28.01 -23.34 27.02 -23 26 C-21.25 25.1875 -21.25 25.1875 -19 25 C-17.31562256 25.62056011 -15.64991582 26.29289322 -14 27 C-10.94727535 27.89830839 -10.94727535 27.89830839 -8 28 C-6.10041919 26.68681738 -6.10041919 26.68681738 -5 25 C-5.66 25 -6.32 25 -7 25 C-7.33 24.34 -7.66 23.68 -8 23 C-9.0725 23.04125 -10.145 23.0825 -11.25 23.125 C-14.65747485 23.0114175 -16.20739631 22.78726636 -19 21 C-19 20.34 -19 19.68 -19 19 C-20.32 18.67 -21.64 18.34 -23 18 C-23.5534764 15.92446352 -24 14.15634036 -24 12 C-24.66 12 -25.32 12 -26 12 C-22.81818182 3.81818182 -22.81818182 3.81818182 -20 1 C-12.93735532 -2.07931308 -7.20388287 -3.14015407 0 0 Z " fill="#32333E" transform="translate(648,392)"/>
<path d="M0 0 C1.19496094 -0.00386719 1.19496094 -0.00386719 2.4140625 -0.0078125 C4.375 0.125 4.375 0.125 5.375 1.125 C5.51615161 3.79558851 5.41747107 6.44932238 5.375 9.125 C6.01308594 9.11339844 6.65117187 9.10179687 7.30859375 9.08984375 C8.13488281 9.08082031 8.96117187 9.07179688 9.8125 9.0625 C10.63621094 9.05089844 11.45992188 9.03929687 12.30859375 9.02734375 C14.375 9.125 14.375 9.125 15.375 10.125 C15.51615161 12.79558851 15.41747107 15.44932238 15.375 18.125 C12.735 18.125 10.095 18.125 7.375 18.125 C7.87 26.54 7.87 26.54 8.375 35.125 C10.85 34.63 10.85 34.63 13.375 34.125 C14.695 36.765 16.015 39.405 17.375 42.125 C16.715 43.115 16.055 44.105 15.375 45.125 C14.715 45.125 14.055 45.125 13.375 45.125 C13.375 45.785 13.375 46.445 13.375 47.125 C3.35006234 48.32799252 3.35006234 48.32799252 -1.203125 45.5546875 C-4.59105731 42.3495573 -6.45544197 40.31190619 -7.125 35.625 C-6.96 34.8 -6.795 33.975 -6.625 33.125 C-6.955 33.125 -7.285 33.125 -7.625 33.125 C-7.625 31.475 -7.625 29.825 -7.625 28.125 C-6.965 28.125 -6.305 28.125 -5.625 28.125 C-5.625 25.485 -5.625 22.845 -5.625 20.125 C-6.285 20.125 -6.945 20.125 -7.625 20.125 C-7.625 19.465 -7.625 18.805 -7.625 18.125 C-8.945 18.125 -10.265 18.125 -11.625 18.125 C-12.25 14.75 -12.25 14.75 -12.625 11.125 C-11.965 10.465 -11.305 9.805 -10.625 9.125 C-9.635 9.125 -8.645 9.125 -7.625 9.125 C-7.625 6.485 -7.625 3.845 -7.625 1.125 C-4.78285932 0.17761977 -2.94891609 -0.00960559 0 0 Z M5.375 18.125 C5.375 23.735 5.375 29.345 5.375 35.125 C5.705 35.125 6.035 35.125 6.375 35.125 C6.375 29.515 6.375 23.905 6.375 18.125 C6.045 18.125 5.715 18.125 5.375 18.125 Z " fill="#302E39" transform="translate(476.625,382.875)"/>
<path d="M0 0 C1.65322266 0.01740234 1.65322266 0.01740234 3.33984375 0.03515625 C4.99693359 0.04869141 4.99693359 0.04869141 6.6875 0.0625 C7.54214844 0.07410156 8.39679688 0.08570313 9.27734375 0.09765625 C9.30261162 7.20010624 9.32017576 14.30254473 9.33227539 21.4050293 C9.33731724 23.82332797 9.34415053 26.24162358 9.3527832 28.65991211 C9.36485532 32.12744908 9.37057338 35.59494591 9.375 39.0625 C9.38016129 40.15102768 9.38532257 41.23955536 9.39064026 42.36106873 C9.39071579 43.36203079 9.39079132 44.36299286 9.39086914 45.39428711 C9.39308975 46.28031113 9.39531036 47.16633514 9.39759827 48.07920837 C9.27734375 50.09765625 9.27734375 50.09765625 8.27734375 51.09765625 C6.63393508 51.1962028 4.98619765 51.22738036 3.33984375 51.22265625 C2.44394531 51.22523438 1.54804688 51.2278125 0.625 51.23046875 C-1.72265625 51.09765625 -1.72265625 51.09765625 -3.72265625 50.09765625 C-3.74792463 43.13762178 -3.76548847 36.17759905 -3.77758789 29.2175293 C-3.78262966 26.84773313 -3.7894629 24.4779401 -3.7980957 22.1081543 C-3.81016815 18.71011586 -3.81588596 15.3121184 -3.8203125 11.9140625 C-3.82547379 10.8474086 -3.83063507 9.7807547 -3.83595276 8.68177795 C-3.83602829 7.70083664 -3.83610382 6.71989532 -3.83618164 5.70922852 C-3.83840225 4.84096939 -3.84062286 3.97271027 -3.84291077 3.07814026 C-3.65324698 -0.04545209 -3.15976146 0.11333434 0 0 Z " fill="#2F2E39" transform="translate(452.72265625,377.90234375)"/>
<path d="M0 0 C0.9590625 -0.02578125 1.918125 -0.0515625 2.90625 -0.078125 C5.92114032 0.30327679 6.58863242 0.99216096 8.5 3.25 C10.60332891 3.96447643 10.60332891 3.96447643 12.5 4.25 C12.5 3.59 12.5 2.93 12.5 2.25 C17.36051596 -0.34227518 22.15271133 0.06310447 27.5 0.25 C28.5 3.25 28.5 3.25 27.375 5.8125 C25.22892077 8.602403 23.69266663 8.98973686 20.5 10.25 C20.3659375 10.85199219 20.231875 11.45398438 20.09375 12.07421875 C19.30074463 14.98016605 17.89284138 16.05613596 15.625 18 C14.92632812 18.61359375 14.22765625 19.2271875 13.5078125 19.859375 C11.5 21.25 11.5 21.25 8.5 21.25 C8.5 20.59 8.5 19.93 8.5 19.25 C7.6028125 19.1571875 7.6028125 19.1571875 6.6875 19.0625 C4.5 18.25 4.5 18.25 3.25 16.125 C1.10937535 12.6082595 -1.52941342 10.43013883 -4.66015625 7.80078125 C-6.5 6.25 -6.5 6.25 -8.5 4.25 C-8.5 3.26 -8.5 2.27 -8.5 1.25 C-5.45059327 0.23353109 -3.19630097 0.05155324 0 0 Z " fill="#0DB19A" transform="translate(115.5,428.75)"/>
<path d="M0 0 C2.97 0 5.94 0 9 0 C10.22099581 3.66298743 10.01998953 6.93020698 9.87890625 10.73046875 C9.85529526 11.48088943 9.83168427 12.23131012 9.80735779 13.00447083 C9.73084327 15.39901219 9.64676674 17.79322013 9.5625 20.1875 C9.50926706 21.8118327 9.45652674 23.43618162 9.40429688 25.06054688 C9.27524473 29.04057534 9.13941046 33.02032144 9 37 C6.03 37 3.06 37 0 37 C0 24.79 0 12.58 0 0 Z " fill="#33353F" transform="translate(661,392)"/>
<path d="M0 0 C10.5878433 -0.02318736 21.17568054 -0.04094771 31.76354408 -0.05181217 C36.68009972 -0.057027 41.59663797 -0.06409924 46.51318359 -0.07543945 C51.25939479 -0.08631807 56.00558928 -0.09228739 60.75181198 -0.09487724 C62.56106199 -0.09672252 64.37031111 -0.10032587 66.17955399 -0.10573006 C68.71689062 -0.11300649 71.25415849 -0.11398815 73.79150391 -0.11352539 C74.53669281 -0.11712067 75.28188171 -0.12071594 76.0496521 -0.12442017 C80.1390782 -0.11636872 83.98797415 0.20483679 88 1 C84.21744376 3.52170416 81.23514232 3.26720692 76.85668945 3.22705078 C75.61245209 3.22748886 75.61245209 3.22748886 74.34307861 3.22793579 C71.59970663 3.22654179 68.85660582 3.21097732 66.11328125 3.1953125 C64.21184945 3.19158262 62.31041573 3.18873553 60.40898132 3.18673706 C55.40301207 3.17909865 50.39715877 3.15944834 45.39123535 3.1373291 C40.28362598 3.11687517 35.17599789 3.10773631 30.06835938 3.09765625 C20.04552196 3.07620268 10.02277062 3.04206419 0 3 C0 2.01 0 1.02 0 0 Z " fill="#189C7C" transform="translate(99,403)"/>
<path d="M0 0 C0.33 0 0.66 0 1 0 C2.4843752 11.24632501 3.71774661 22.51160231 4.85864258 33.79785156 C5.54237642 40.38209257 6.43647984 46.8757633 7.57177734 53.39697266 C8.07356746 56.44719285 8.3652788 59.47829616 8.5625 62.5625 C8.76533505 65.67953654 9.00770437 68.02311311 10 71 C10.22718496 73.56634861 10.41608184 76.11678107 10.5625 78.6875 C10.60568359 79.38939453 10.64886719 80.09128906 10.69335938 80.81445312 C10.7991736 82.54275206 10.90006581 84.2713511 11 86 C12.98 86 14.96 86 17 86 C17.33 85.34 17.66 84.68 18 84 C18 85.32 18 86.64 18 88 C17 89 17 89 14.6875 89.375 C12 89 12 89 9.75 87.0625 C7.75781732 83.5761803 7.42041771 81.0648068 7.1484375 77.12109375 C7.05057974 74.92939517 7.05057974 74.92939517 6.4375 72.5625 C5.72682619 68.39998196 5.92638526 64.21239926 6 60 C5.34 59.67 4.68 59.34 4 59 C4 57.20821221 4.01536401 55.41616768 4.0625 53.625 C3.99870247 50.94550365 3.56095709 48.61779975 3 46 C2.00036034 40.12711702 1.64542959 34.24861874 1.28125 28.3046875 C1.03832113 25.45027327 0.6290781 22.78940057 0 20 C-1.36723276 13.61958048 -2.08489895 6.25469686 0 0 Z " fill="#20B197" transform="translate(211,392)"/>
<path d="M0 0 C11.61302698 -0.27829237 23.22525873 -0.49137963 34.84094334 -0.62174606 C40.2350869 -0.68432497 45.62694658 -0.76915747 51.01977539 -0.90527344 C56.22657024 -1.03586823 61.43117236 -1.10744805 66.63947868 -1.13852692 C68.62408931 -1.16066592 70.60858237 -1.20390516 72.59225655 -1.26876068 C88.10789535 -1.75576541 88.10789535 -1.75576541 92.81344604 2.61071777 C95.6172716 7.20690116 97 10.59249929 97 16 C96.01 15.67 95.02 15.34 94 15 C93.4375 13.1875 93.4375 13.1875 93 11 C92.01672334 8.68227644 91.16150445 7.16150445 89.375 5.375 C88.92125 4.92125 88.4675 4.4675 88 4 C88 3.34 88 2.68 88 2 C59.29 2 30.58 2 1 2 C0.67 1.34 0.34 0.68 0 0 Z " fill="#28AB96" transform="translate(94,413)"/>
<path d="M0 0 C0 0.66 0 1.32 0 2 C0.66 2.33 1.32 2.66 2 3 C1.45276317 6.37462715 0.9451 8.08235 -1 11 C-2.89746094 11.32952881 -2.89746094 11.32952881 -5.234375 11.26464844 C-6.10868164 11.24762878 -6.98298828 11.23060913 -7.88378906 11.21307373 C-9.30256348 11.16174286 -9.30256348 11.16174286 -10.75 11.109375 C-11.71905273 11.08530579 -12.68810547 11.06123657 -13.68652344 11.03643799 C-15.73782822 10.98271924 -17.78895279 10.92170384 -19.83984375 10.85400391 C-22.98674366 10.75043628 -26.13362973 10.66814031 -29.28125 10.58984375 C-31.27086793 10.53509722 -33.2604532 10.47914808 -35.25 10.421875 C-36.19584961 10.39575134 -37.14169922 10.36962769 -38.11621094 10.3427124 C-38.99051758 10.31308411 -39.86482422 10.28345581 -40.765625 10.25292969 C-41.53680664 10.22833679 -42.30798828 10.2037439 -43.10253906 10.17840576 C-45 10 -45 10 -47 9 C-46.67 8.01 -46.34 7.02 -46 6 C-45.67 6.33 -45.34 6.66 -45 7 C-43.64905018 7.09268999 -42.29332909 7.11747326 -40.93920898 7.11352539 C-39.64798378 7.11341209 -39.64798378 7.11341209 -38.33067322 7.11329651 C-36.92755638 7.10555458 -36.92755638 7.10555458 -35.49609375 7.09765625 C-34.06657127 7.09553383 -34.06657127 7.09553383 -32.60816956 7.09336853 C-29.55124835 7.08775152 -26.49439923 7.07519616 -23.4375 7.0625 C-21.37044376 7.05748719 -19.30338638 7.05292391 -17.23632812 7.04882812 C-12.15752412 7.03777656 -7.0787743 7.02050055 -2 7 C-2 5.02 -2 3.04 -2 1 C-14.87 1 -27.74 1 -41 1 C-41.33 0.34 -41.66 -0.32 -42 -1 C-36.50108703 -1.19230423 -31.00196459 -1.37102036 -25.50219727 -1.53710938 C-23.63098284 -1.59553918 -21.75988085 -1.65769285 -19.88891602 -1.72363281 C-17.20089184 -1.81772435 -14.5127489 -1.8984537 -11.82421875 -1.9765625 C-10.98662521 -2.00875885 -10.14903168 -2.0409552 -9.28605652 -2.0741272 C-3.34161512 -2.22774341 -3.34161512 -2.22774341 0 0 Z " fill="#21A68F" transform="translate(295,405)"/>
<path d="M0 0 C5.42465753 0.48219178 5.42465753 0.48219178 7.875 2.6875 C9.38863886 5.79886876 9.64026715 7.58524187 9 11 C4.15789474 15 4.15789474 15 1 15 C1 14.34 1 13.68 1 13 C-0.65 12.67 -2.3 12.34 -4 12 C-5.3442623 6.62295082 -5.3442623 6.62295082 -3.6875 3.625 C-2 2 -2 2 0 2 C0 1.34 0 0.68 0 0 Z " fill="#333440" transform="translate(663,374)"/>
<path d="M0 0 C2.86767007 2.13960876 5.59417224 4.3446316 8 7 C8 7.66 8 8.32 8 9 C4.12829857 8.4468998 2.70189633 6.70189633 0 4 C-5.65554462 0.81875615 -9.79986514 -0.13261016 -16.25 -0.0625 C-17.86648437 -0.04896484 -17.86648437 -0.04896484 -19.515625 -0.03515625 C-20.74539062 -0.01775391 -20.74539062 -0.01775391 -22 0 C-22.33 0.66 -22.66 1.32 -23 2 C-24.0725 2.226875 -25.145 2.45375 -26.25 2.6875 C-31.26139328 4.44148765 -32.28004172 6.54915918 -35 11 C-35.66 10.67 -36.32 10.34 -37 10 C-34.49501902 4.34240882 -30.08100312 1.24860187 -24.875 -1.875 C-17.29002964 -4.75146732 -6.97722584 -4.23040219 0 0 Z " fill="#0B9984" transform="translate(169,333)"/>
<path d="M0 0 C7.26 0 14.52 0 22 0 C22 6.27 22 12.54 22 19 C21.34 18.67 20.68 18.34 20 18 C20 12.72 20 7.44 20 2 C14.06 2 8.12 2 2 2 C2 7.28 2 12.56 2 18 C1.34 18 0.68 18 0 18 C0 12.06 0 6.12 0 0 Z " fill="#232328" transform="translate(329,409)"/>
<path d="M0 0 C0.33 0 0.66 0 1 0 C1.47977738 3.79228292 1.95492284 7.58502253 2.421875 11.37890625 C2.78603779 14.32751007 3.17161573 17.27179957 3.578125 20.21484375 C4.95676939 30.5208152 5.21875402 40.60918405 5 51 C4.34 50.67 3.68 50.34 3 50 C3.020625 49.113125 3.04125 48.22625 3.0625 47.3125 C3.10529391 44.15428031 3.10529391 44.15428031 2.52734375 41.73046875 C1.67494537 37.31693937 1.55164761 32.85587469 1.28125 28.375 C1.04107652 25.49291826 0.63705784 22.81490675 0 20 C-1.36723276 13.61958048 -2.08489895 6.25469686 0 0 Z " fill="#24B296" transform="translate(211,392)"/>
<path d="M0 0 C7.69702815 -0.71415725 13.29772614 -0.31351087 19.80078125 4.07421875 C23.93235584 7.69209845 26.56590501 12.13181002 29 17 C30.65 17 32.3 17 34 17 C34.33 16.34 34.66 15.68 35 15 C35.99 15 36.98 15 38 15 C38 15.66 38 16.32 38 17 C32.52380952 22 32.52380952 22 30 22 C28.2734375 20.1015625 28.2734375 20.1015625 26.375 17.625 C25.74335937 16.81289063 25.11171875 16.00078125 24.4609375 15.1640625 C23 13 23 13 23 11 C21.43581846 9.71536479 21.43581846 9.71536479 19.5 8.5 C17.53125 7.21875 17.53125 7.21875 16 6 C16 5.34 16 4.68 16 4 C14.35 4 12.7 4 11 4 C10.67 3.34 10.34 2.68 10 2 C6.7 2 3.4 2 0 2 C0 1.34 0 0.68 0 0 Z " fill="#189E89" transform="translate(94,331)"/>
<path d="M0 0 C0.66 0.33 1.32 0.66 2 1 C2 9.25 2 17.5 2 26 C-1.21451269 27.60725635 -4.43612536 27.05748185 -8 27 C-7.67 26.34 -7.34 25.68 -7 25 C-5.02 25 -3.04 25 -1 25 C-1.00523682 24.31373535 -1.01047363 23.6274707 -1.01586914 22.92041016 C-1.03660956 19.82194936 -1.04965076 16.72350314 -1.0625 13.625 C-1.07087891 12.54476563 -1.07925781 11.46453125 -1.08789062 10.3515625 C-1.09111328 9.3203125 -1.09433594 8.2890625 -1.09765625 7.2265625 C-1.10289307 6.27346191 -1.10812988 5.32036133 -1.11352539 4.33837891 C-1 2 -1 2 0 0 Z " fill="#26262B" transform="translate(533,402)"/>
<path d="M0 0 C1.32 0 2.64 0 4 0 C4 0.66 4 1.32 4 2 C3.34 2 2.68 2 2 2 C2.03480469 2.60585938 2.06960937 3.21171875 2.10546875 3.8359375 C2.29241312 9.62231087 1.5078174 14.14373551 -0.33984375 19.609375 C-1.00059624 22.00215917 -1.14024495 23.90545446 -1.0625 26.375 C-1.00400913 29.76747068 -1.15911869 31.23867803 -3 34 C-3.33 34 -3.66 34 -4 34 C-3.5444951 22.47101379 -2.08765715 11.34425017 0 0 Z " fill="#109982" transform="translate(238,419)"/>
<path d="M0 0 C3.96 0 7.92 0 12 0 C13 3 13 3 11.875 5.5625 C9.72892077 8.352403 8.19266663 8.73973686 5 10 C4.11306697 12.04105639 4.11306697 12.04105639 4 14 C3.34 14 2.68 14 2 14 C2 13.34 2 12.68 2 12 C2.66 12 3.32 12 4 12 C4.0825 11.4225 4.165 10.845 4.25 10.25 C5.20531013 7.3840696 6.78469173 6.0009236 9 4 C6.03 3.67 3.06 3.34 0 3 C0 2.01 0 1.02 0 0 Z " fill="#15A282" transform="translate(131,429)"/>
<path d="M0 0 C0.88171875 0.26167969 1.7634375 0.52335937 2.671875 0.79296875 C2.135625 1.01984375 1.599375 1.24671875 1.046875 1.48046875 C-3.24005345 3.84956079 -6.6144062 6.72239056 -9.328125 10.79296875 C-9.988125 10.79296875 -10.648125 10.79296875 -11.328125 10.79296875 C-11.59625 11.43234375 -11.864375 12.07171875 -12.140625 12.73046875 C-13.328125 14.79296875 -13.328125 14.79296875 -16.328125 15.79296875 C-16.658125 16.78296875 -16.988125 17.77296875 -17.328125 18.79296875 C-18.318125 18.13296875 -19.308125 17.47296875 -20.328125 16.79296875 C-18.953125 15.29296875 -18.953125 15.29296875 -17.328125 13.79296875 C-16.668125 13.79296875 -16.008125 13.79296875 -15.328125 13.79296875 C-15.09609375 13.24253906 -14.8640625 12.69210937 -14.625 12.125 C-12.96970101 9.14845332 -10.92964853 6.94244263 -8.578125 4.48046875 C-7.73765625 3.57683594 -6.8971875 2.67320312 -6.03125 1.7421875 C-3.328125 -0.20703125 -3.328125 -0.20703125 0 0 Z " fill="#169281" transform="translate(296.328125,324.20703125)"/>
<path d="M0 0 C0.66 0 1.32 0 2 0 C1.67 0.99 1.34 1.98 1 3 C1.35117867 6.16060806 1.81066338 9.22161613 2.5625 12.3125 C3.24828959 16.52520747 3.07442239 20.74138544 3 25 C3.66 25 4.32 25 5 25 C4.67 26.65 4.34 28.3 4 30 C3.34 30 2.68 30 2 30 C1.49045093 26.66805501 0.99412986 23.33426366 0.5 20 C0.35691406 19.06542969 0.21382812 18.13085938 0.06640625 17.16796875 C-0.73402787 11.71739357 -1.25511495 6.51048292 -1 1 C-0.67 0.67 -0.34 0.34 0 0 Z " fill="#0B977B" transform="translate(219,383)"/>
<path d="M0 0 C0.33 0.66 0.66 1.32 1 2 C1.66 2 2.32 2 3 2 C3.23268915 8.28260706 2.40454548 13.88019467 1 20 C0.34 20 -0.32 20 -1 20 C-1.33 20.66 -1.66 21.32 -2 22 C-3.05128687 18.76470168 -2.91901775 16.60277903 -2.125 13.3125 C-1.94195312 12.52488281 -1.75890625 11.73726563 -1.5703125 10.92578125 C-1 9 -1 9 0 8 C0.07148199 6.64756083 0.08399454 5.29165633 0.0625 3.9375 C0.041875 2.638125 0.02125 1.33875 0 0 Z " fill="#29B6A3" transform="translate(195,384)"/>
<path d="M0 0 C1.66666667 0.66666667 3.33333333 1.33333333 5 2 C6.36125 2.495 6.36125 2.495 7.75 3 C10 4 10 4 11 6 C11.845625 6.495 12.69125 6.99 13.5625 7.5 C14.366875 7.995 15.17125 8.49 16 9 C16 9.66 16 10.32 16 11 C17.32 11.66 18.64 12.32 20 13 C18.02 13.99 18.02 13.99 16 15 C14.14453125 12.70507812 14.14453125 12.70507812 12.2890625 10.41015625 C11.0333609 8.86733563 11.0333609 8.86733563 9 8 C9 7.34 9 6.68 9 6 C7.9171875 5.814375 7.9171875 5.814375 6.8125 5.625 C4.04278106 5.0095069 1.6029646 4.11555626 -1 3 C-0.67 2.01 -0.34 1.02 0 0 Z " fill="#0D9885" transform="translate(108,322)"/>
<path d="M0 0 C12.54041081 -1.43318981 12.54041081 -1.43318981 18 0 C21.75690984 3.45315968 23.55210963 7.1401245 25 12 C25 13.32 25 14.64 25 16 C24.01 15.67 23.02 15.34 22 15 C21.4375 13.1875 21.4375 13.1875 21 11 C19.52772041 7.48917943 17.69006607 4.70314581 15 2 C12.22539454 1.46574086 10.02201654 1.21108048 7.25 1.1875 C6.55261719 1.16236328 5.85523438 1.13722656 5.13671875 1.11132812 C3.42508051 1.05271038 1.7124814 1.02342947 0 1 C0 0.67 0 0.34 0 0 Z " fill="#17A38B" transform="translate(166,413)"/>
<path d="M0 0 C8.91 0 17.82 0 27 0 C27 0.66 27 1.32 27 2 C18.42 2.33 9.84 2.66 1 3 C0.67 2.01 0.34 1.02 0 0 Z " fill="#23232B" transform="translate(379,412)"/>
<path d="M0 0 C0.33 0 0.66 0 1 0 C1.83770495 3.60605802 2.08225969 6.86595526 2 10.5625 C1.92479962 13.95121735 2.11703067 16.7371524 3 20 C3 20.99 3 21.98 3 23 C0.43346397 20.76822954 -0.40656733 19.3288747 -1 16 C-1.09278598 13.81407156 -1.12997814 11.62539113 -1.125 9.4375 C-1.12757812 8.30183594 -1.13015625 7.16617187 -1.1328125 5.99609375 C-1 3 -1 3 0 0 Z " fill="#099E84" transform="translate(70,347)"/>
<path d="M0 0 C0.33 0.66 0.66 1.32 1 2 C-1.31 2.66 -3.62 3.32 -6 4 C-6.66 8.29 -7.32 12.58 -8 17 C-8.99 16.67 -9.98 16.34 -11 16 C-11 13.69 -11 11.38 -11 9 C-10.34 9 -9.68 9 -9 9 C-9.0825 7.906875 -9.165 6.81375 -9.25 5.6875 C-9 2 -9 2 -7.3125 0 C-4.40639016 -1.25669615 -2.95860865 -1.03951115 0 0 Z " fill="#19A18D" transform="translate(212,340)"/>
<path d="M0 0 C0.99 0.33 1.98 0.66 3 1 C1.7826087 11.43478261 1.7826087 11.43478261 0 15 C-0.85064093 18.31749961 -1.10732122 19.67803635 0 23 C-0.66 23 -1.32 23 -2 23 C-2.33 23.66 -2.66 24.32 -3 25 C-3.16032995 19.12123504 -2.6092534 13.76611905 -1.5 8 C-1.35691406 7.22527344 -1.21382812 6.45054687 -1.06640625 5.65234375 C-0.71727671 3.76704421 -0.35954684 1.88334061 0 0 Z " fill="#049B6F" transform="translate(203,403)"/>
<path d="M0 0 C0.84191782 2.9248633 1.11819313 5.50741656 1.09765625 8.546875 C1.09282227 9.81337891 1.09282227 9.81337891 1.08789062 11.10546875 C1.07951172 11.97816406 1.07113281 12.85085938 1.0625 13.75 C1.05798828 14.63816406 1.05347656 15.52632813 1.04882812 16.44140625 C1.037074 18.62767329 1.02064249 20.81380179 1 23 C0.01 22.67 -0.98 22.34 -2 22 C-2.33 20.02 -2.66 18.04 -3 16 C-3.33 16 -3.66 16 -4 16 C-4 14.02 -4 12.04 -4 10 C-3.34 10 -2.68 10 -2 10 C-2 7.36 -2 4.72 -2 2 C-1.34 2 -0.68 2 0 2 C0 1.34 0 0.68 0 0 Z " fill="#219F87" transform="translate(62,344)"/>
<path d="M0 0 C2.97 0 5.94 0 9 0 C9.33 0.99 9.66 1.98 10 3 C9.34 3 8.68 3 8 3 C7.67 3.66 7.34 4.32 7 5 C6.67 4.01 6.34 3.02 6 2 C4.68 2.33 3.36 2.66 2 3 C1.67 11.91 1.34 20.82 1 30 C0.67 30 0.34 30 0 30 C0 20.1 0 10.2 0 0 Z " fill="#262730" transform="translate(661,392)"/>
<path d="M0 0 C0.33 0.66 0.66 1.32 1 2 C1.66 2.33 2.32 2.66 3 3 C4.42921558 9.01653655 4.22026576 14.27405146 2 20 C1.34 20.99 0.68 21.98 0 23 C0 15.41 0 7.82 0 0 Z " fill="#06A874" transform="translate(189,345)"/>
<path d="M0 0 C3.90285767 1.58667578 6.33520982 4.13350481 9.25 7.125 C10.14203125 8.03507812 11.0340625 8.94515625 11.953125 9.8828125 C12.62859375 10.58148438 13.3040625 11.28015625 14 12 C13.01 12.66 12.02 13.32 11 14 C9.66070495 12.71451591 8.32871357 11.42141845 7 10.125 C6.2575 9.40570313 5.515 8.68640625 4.75 7.9453125 C3 6 3 6 3 4 C2.01 3.67 1.02 3.34 0 3 C0 2.01 0 1.02 0 0 Z " fill="#10A57C" transform="translate(249,348)"/>
<path d="M0 0 C-1.12451727 2.9719385 -2.22293791 5.33440687 -4 8 C-4.45139459 10.0492094 -4.45139459 10.0492094 -4.625 12.1875 C-4.74875 13.445625 -4.8725 14.70375 -5 16 C-5.66 16 -6.32 16 -7 16 C-8.41000664 13.17998673 -8.24548451 11.12992745 -8 8 C-4.09302326 0 -4.09302326 0 0 0 Z " fill="#262633" transform="translate(597,392)"/>
<path d="M0 0 C3.63061667 1.53218685 5.9863773 3.7183144 8.75 6.5 C9.94882812 7.69109375 9.94882812 7.69109375 11.171875 8.90625 C13 11 13 11 13 13 C12.01 13 11.02 13 10 13 C10 12.34 10 11.68 10 11 C9.401875 10.731875 8.80375 10.46375 8.1875 10.1875 C6.00152146 9.00082594 4.58667406 7.90400887 3 6 C3 5.34 3 4.68 3 4 C2.01 3.67 1.02 3.34 0 3 C0 2.01 0 1.02 0 0 Z " fill="#148976" transform="translate(253,338)"/>
<path d="M0 0 C5.94 0.66 11.88 1.32 18 2 C18.33 2.99 18.66 3.98 19 5 C16.75026553 5.054138 14.50015617 5.09285491 12.25 5.125 C10.99703125 5.14820313 9.7440625 5.17140625 8.453125 5.1953125 C5.26094619 5.0147594 3.55068399 4.86967613 1 3 C0.67 2.01 0.34 1.02 0 0 Z " fill="#292A33" transform="translate(626,425)"/>
<path d="M0 0 C0.33 0.99 0.66 1.98 1 3 C-0.07421875 4.75390625 -0.07421875 4.75390625 -1.6875 6.5625 C-2.20699219 7.16191406 -2.72648437 7.76132812 -3.26171875 8.37890625 C-5 10 -5 10 -7.08203125 11.02734375 C-9.3371329 11.97357275 -9.3371329 11.97357275 -11 15 C-11.66 15 -12.32 15 -13 15 C-11.38989473 10.92623969 -8.46177729 8.23492931 -5.375 5.25 C-4.859375 4.74339844 -4.34375 4.23679687 -3.8125 3.71484375 C-2.54616661 2.47196098 -1.2736856 1.23534724 0 0 Z " fill="#0C9583" transform="translate(292,339)"/>
<path d="M0 0 C0.33 0.66 0.66 1.32 1 2 C0.67 2.66 0.34 3.32 0 4 C-0.515625 3.79375 -1.03125 3.5875 -1.5625 3.375 C-5.00469074 2.84543219 -7.68876087 4.03673044 -11 5 C-11.99 4.67 -12.98 4.34 -14 4 C-14 3.34 -14 2.68 -14 2 C-9.15758367 0.66416101 -5.06562383 -0.25328119 0 0 Z " fill="#181626" transform="translate(428,399)"/>
<path d="M0 0 C7.24388072 -0.54329105 12.54710585 -0.53214177 18.671875 3.61328125 C20 5 20 5 20 8 C18.68 7.34 17.36 6.68 16 6 C16 5.34 16 4.68 16 4 C14.35 4 12.7 4 11 4 C10.67 3.34 10.34 2.68 10 2 C6.7 2 3.4 2 0 2 C0 1.34 0 0.68 0 0 Z " fill="#0D917D" transform="translate(94,331)"/>
<path d="M0 0 C0.99 0.33 1.98 0.66 3 1 C2.34 2.32 1.68 3.64 1 5 C0.34 5 -0.32 5 -1 5 C-1 5.99 -1 6.98 -1 8 C-1.66 8 -2.32 8 -3 8 C-3 7.34 -3 6.68 -3 6 C-7.29 6 -11.58 6 -16 6 C-16 5.67 -16 5.34 -16 5 C-14.02 5 -12.04 5 -10 5 C-10 4.34 -10 3.68 -10 3 C-7.69 3.33 -5.38 3.66 -3 4 C-2.01 2.68 -1.02 1.36 0 0 Z " fill="#222228" transform="translate(652,395)"/>
<path d="M0 0 C0.33 0 0.66 0 1 0 C1.05425226 2.39614126 1.09379027 4.79103853 1.125 7.1875 C1.15013672 8.19780273 1.15013672 8.19780273 1.17578125 9.22851562 C1.21538674 13.28807807 0.80020002 16.34998815 -1 20 C-1.33 20 -1.66 20 -2 20 C-2.10273214 13.63060749 -2.01329994 7.30497742 -1 1 C-0.67 0.67 -0.34 0.34 0 0 Z " fill="#1C1D25" transform="translate(715,400)"/>
<path d="M0 0 C4.95 0 9.9 0 15 0 C15.33 1.32 15.66 2.64 16 4 C10.72 3.67 5.44 3.34 0 3 C0 2.01 0 1.02 0 0 Z " fill="#1EA18A" transform="translate(90,320)"/>
<path d="M0 0 C0.99 0.33 1.98 0.66 3 1 C3.91397824 6.68697571 3.91397824 11.31302429 3 17 C2.67 17 2.34 17 2 17 C0.7017874 11.23918159 -0.25706972 5.91260345 0 0 Z " fill="#13AA8C" transform="translate(222,419)"/>
<path d="M0 0 C4.54109672 4.26587874 8.24735246 9.03612328 12 14 C11.01 14.495 11.01 14.495 10 15 C9 14 8 13 7 12 C6.278125 11.34 5.55625 10.68 4.8125 10 C3 8 3 8 3 5 C2.01 4.67 1.02 4.34 0 4 C-0.33 3.01 -0.66 2.02 -1 1 C-0.67 0.67 -0.34 0.34 0 0 Z " fill="#139D78" transform="translate(74,389)"/>
<path d="M0 0 C0.99 0.66 1.98 1.32 3 2 C2.649375 2.70125 2.29875 3.4025 1.9375 4.125 C0.8360807 7.50268586 1.20483859 9.58080593 2 13 C0.68 13.99 -0.64 14.98 -2 16 C-1.85975781 13.52039864 -1.7130815 11.04147598 -1.5625 8.5625 C-1.52318359 7.85544922 -1.48386719 7.14839844 -1.44335938 6.41992188 C-1.11328125 1.11328125 -1.11328125 1.11328125 0 0 Z " fill="#12A087" transform="translate(207,378)"/>
<path d="M0 0 C1.91789713 0.28346278 3.83429183 0.5771028 5.75 0.875 C7.35101562 1.11863281 7.35101562 1.11863281 8.984375 1.3671875 C11.67708871 1.93223882 13.63572439 2.63422914 16 4 C15.67 5.32 15.34 6.64 15 8 C15 7.34 15 6.68 15 6 C13.68 6 12.36 6 11 6 C10.67 5.34 10.34 4.68 10 4 C8.906875 4.061875 7.81375 4.12375 6.6875 4.1875 C3 4 3 4 1.0625 2.5625 C0 1 0 1 0 0 Z " fill="#262631" transform="translate(630,411)"/>
<path d="M0 0 C0 3 0 3 -1 5 C-1.07033769 6.87379605 -1.0843022 8.75001102 -1.0625 10.625 C-1.04896484 12.12933594 -1.04896484 12.12933594 -1.03515625 13.6640625 C-1.02355469 14.43492187 -1.01195312 15.20578125 -1 16 C-1.99 15.67 -2.98 15.34 -4 15 C-4 13.68 -4 12.36 -4 11 C-4.66 11 -5.32 11 -6 11 C-2.81818182 2.81818182 -2.81818182 2.81818182 0 0 Z " fill="#212131" transform="translate(628,393)"/>
<path d="M0 0 C2 4 2 4 1.1015625 7.015625 C0.61429688 8.08296875 0.12703125 9.1503125 -0.375 10.25 C-0.85710938 11.32765625 -1.33921875 12.4053125 -1.8359375 13.515625 C-2.22007812 14.33546875 -2.60421875 15.1553125 -3 16 C-3.99 16 -4.98 16 -6 16 C-5.34 13.69 -4.68 11.38 -4 9 C-3.34 9 -2.68 9 -2 9 C-1.34 6.03 -0.68 3.06 0 0 Z " fill="#2B2C35" transform="translate(550,395)"/>
<path d="M0 0 C0.99 0 1.98 0 3 0 C1.45730076 4.72065967 -0.07794619 9.41664092 -2 14 C-2.66 14 -3.32 14 -4 14 C-5 11 -5 11 -4.2578125 9.0625 C-3.88398437 8.381875 -3.51015625 7.70125 -3.125 7 C-1.84169028 4.63081282 -0.85840339 2.57521017 0 0 Z " fill="#1F1F28" transform="translate(556,381)"/>
<path d="M0 0 C0.33 0 0.66 0 1 0 C1.33 2.64 1.66 5.28 2 8 C3.98 8 5.96 8 8 8 C8.33 7.34 8.66 6.68 9 6 C9 7.32 9 8.64 9 10 C8 11 8 11 5.6875 11.375 C3 11 3 11 0.625 8.875 C-1 6 -1 6 -0.75 2.6875 C-0.5025 1.800625 -0.255 0.91375 0 0 Z " fill="#21A389" transform="translate(220,470)"/>
<path d="M0 0 C4.84146109 1.46710942 8.55948972 4.3512744 12 8 C12 8.66 12 9.32 12 10 C8.15641703 9.45091672 6.60968697 7.77279241 4 5 C3.2575 4.46375 2.515 3.9275 1.75 3.375 C1.1725 2.92125 0.595 2.4675 0 2 C0 1.34 0 0.68 0 0 Z " fill="#129B86" transform="translate(165,332)"/>
<path d="M0 0 C0.99 0 1.98 0 3 0 C5.04296875 2.1875 5.04296875 2.1875 7.1875 5 C7.90292969 5.928125 8.61835937 6.85625 9.35546875 7.8125 C9.89816406 8.534375 10.44085938 9.25625 11 10 C10.01 10.33 9.02 10.66 8 11 C6.66072279 9.54712339 5.32873153 8.08752741 4 6.625 C3.2575 5.81289063 2.515 5.00078125 1.75 4.1640625 C0 2 0 2 0 0 Z " fill="#079D6E" transform="translate(82,385)"/>
<path d="M0 0 C0.99 0 1.98 0 3 0 C4 2 5 4 6 6 C6.37125 6.70125 6.7425 7.4025 7.125 8.125 C8.02977527 10.06380415 8.55259252 11.91209843 9 14 C8.01 14 7.02 14 6 14 C4.02 9.38 2.04 4.76 0 0 Z " fill="#1CA885" transform="translate(243,383)"/>
<path d="M0 0 C2.75999237 2.2424938 3.88946638 3.46943863 4.625 7 C4 10 4 10 1.125 12.375 C-2 14 -2 14 -4 14 C-4.33 13.01 -4.66 12.02 -5 11 C-3.02 10.67 -1.04 10.34 1 10 C0.835 8.906875 0.67 7.81375 0.5 6.6875 C0 3 0 3 0 0 Z " fill="#262630" transform="translate(668,375)"/>
<path d="M0 0 C5.12583611 -0.10251672 9.94997778 -0.03590199 15 1 C14.67 1.99 14.34 2.98 14 4 C12.96875 3.835 11.9375 3.67 10.875 3.5 C7.51755674 3.06678152 4.37663843 2.91764297 1 3 C0.67 2.01 0.34 1.02 0 0 Z " fill="#1E1E29" transform="translate(689,398)"/>
<path d="M0 0 C0.33 0 0.66 0 1 0 C1.027193 1.58323688 1.04648306 3.16661062 1.0625 4.75 C1.07410156 5.63171875 1.08570313 6.5134375 1.09765625 7.421875 C1.00826198 9.7818838 0.66912821 11.74498524 0 14 C-0.99 14 -1.98 14 -3 14 C-2.48594831 9.03083364 -1.76615118 4.70973649 0 0 Z " fill="#35BBA7" transform="translate(199,369)"/>
<path d="M0 0 C0.33 0 0.66 0 1 0 C1.05447047 1.41623216 1.09300508 2.83308191 1.125 4.25 C1.14820313 5.03890625 1.17140625 5.8278125 1.1953125 6.640625 C0.9828378 9.20731941 0.28654105 10.7916067 -1 13 C-1.66 13 -2.32 13 -3 13 C-3 13.66 -3 14.32 -3 15 C-3.66 15 -4.32 15 -5 15 C-4.67 13.68 -4.34 12.36 -4 11 C-3.34 11 -2.68 11 -2 11 C-2.04125 10.113125 -2.0825 9.22625 -2.125 8.3125 C-2.00102754 5.02722987 -1.38612096 2.94550705 0 0 Z " fill="#28C2A1" transform="translate(180,359)"/>
<path d="M0 0 C1.77007714 -0.08114106 3.54122098 -0.13925505 5.3125 -0.1875 C6.29863281 -0.22230469 7.28476563 -0.25710938 8.30078125 -0.29296875 C11 0 11 0 12.75 1.40625 C13.36875 2.19515625 13.36875 2.19515625 14 3 C14.556875 3.556875 15.11375 4.11375 15.6875 4.6875 C16.3371875 5.3371875 16.3371875 5.3371875 17 6 C15.68 6 14.36 6 13 6 C12.34 5.34 11.68 4.68 11 4 C8.42938689 3.35232207 8.42938689 3.35232207 6 3 C6 2.67 6 2.34 6 2 C3.03 1.505 3.03 1.505 0 1 C0 0.67 0 0.34 0 0 Z " fill="#0A6957" transform="translate(110,429)"/>
<path d="M0 0 C1.32 0 2.64 0 4 0 C4 0.66 4 1.32 4 2 C3.34 2 2.68 2 2 2 C2.02320313 2.68707031 2.04640625 3.37414062 2.0703125 4.08203125 C2.08835938 4.98308594 2.10640625 5.88414062 2.125 6.8125 C2.14820313 7.70582031 2.17140625 8.59914063 2.1953125 9.51953125 C2 12 2 12 0 15 C-0.19601608 13.25093341 -0.38147403 11.50068154 -0.5625 9.75 C-0.66691406 8.77546875 -0.77132812 7.8009375 -0.87890625 6.796875 C-0.98974468 4.2368648 -0.77738092 2.41851841 0 0 Z " fill="#0B927C" transform="translate(238,419)"/>
<path d="M0 0 C9.41002278 -0.3690205 9.41002278 -0.3690205 14 2 C13.01 2.495 13.01 2.495 12 3 C11.67 3.66 11.34 4.32 11 5 C10.67 4.34 10.34 3.68 10 3 C8.72125 3.020625 7.4425 3.04125 6.125 3.0625 C2.25 3.125 2.25 3.125 0 2 C0 1.34 0 0.68 0 0 Z " fill="#212229" transform="translate(596,412)"/>
<path d="M0 0 C0.99 0 1.98 0 3 0 C3.19294408 4.82360189 2.75747614 8.49646738 1 13 C0.67 13 0.34 13 0 13 C0 8.71 0 4.42 0 0 Z " fill="#0A9B7A" transform="translate(240,406)"/>
<path d="M0 0 C2.62589854 1.31294927 3.49650336 2.94405574 5.125 5.375 C5.66382812 6.16648437 6.20265625 6.95796875 6.7578125 7.7734375 C8 10 8 10 8 13 C7.34 13 6.68 13 6 13 C4.5625 10.8125 4.5625 10.8125 3 8 C2.443125 7.13375 1.88625 6.2675 1.3125 5.375 C0 3 0 3 0 0 Z " fill="#09986F" transform="translate(74,372)"/>
<path d="M0 0 C2.33333333 2.33333333 4.66666667 4.66666667 7 7 C7 7.99 7 8.98 7 10 C3.21282653 8.51218185 1.22592999 6.38011591 -1 3 C-0.67 2.01 -0.34 1.02 0 0 Z " fill="#1C9787" transform="translate(110,431)"/>
<path d="M0 0 C0 0.66 0 1.32 0 2 C-0.66 2 -1.32 2 -2 2 C-2.66 3.32 -3.32 4.64 -4 6 C-4.66 6 -5.32 6 -6 6 C-6.33 6.99 -6.66 7.98 -7 9 C-7.66 9 -8.32 9 -9 9 C-8.44706396 4.02357564 -5.06735917 0 0 0 Z " fill="#1CA18D" transform="translate(278,342)"/>
<path d="M0 0 C0.99 0.33 1.98 0.66 3 1 C3 1.66 3 2.32 3 3 C5.31 3 7.62 3 10 3 C10 3.66 10 4.32 10 5 C6.7 5 3.4 5 0 5 C-0.33 4.01 -0.66 3.02 -1 2 C-0.67 1.34 -0.34 0.68 0 0 Z " fill="#40424A" transform="translate(537,424)"/>
<path d="M0 0 C0.66 0 1.32 0 2 0 C2 0.66 2 1.32 2 2 C5.3 2 8.6 2 12 2 C12 2.66 12 3.32 12 4 C10.41705218 4.05437607 8.83355744 4.09296271 7.25 4.125 C6.36828125 4.14820313 5.4865625 4.17140625 4.578125 4.1953125 C1.8864142 3.99139502 0.30095026 3.36551721 -2 2 C-1.34 1.34 -0.68 0.68 0 0 Z " fill="#0F644F" transform="translate(159,395)"/>
<path d="M0 0 C0.66 0.33 1.32 0.66 2 1 C0.41037341 5.03520597 -1.28232318 9.01811282 -3 13 C-3.99 12.67 -4.98 12.34 -6 12 C-4.02 8.04 -2.04 4.08 0 0 Z " fill="#059B72" transform="translate(188,369)"/>
<path d="M0 0 C5 2 5 2 10 4 C10 4.99 10 5.98 10 7 C6.37 5.68 2.74 4.36 -1 3 C-0.67 2.01 -0.34 1.02 0 0 Z " fill="#159B7C" transform="translate(108,322)"/>
<path d="M0 0 C3.96 0 7.92 0 12 0 C12.33 0.99 12.66 1.98 13 3 C12.34 3.66 11.68 4.32 11 5 C11 4.01 11 3.02 11 2 C7.37 2 3.74 2 0 2 C0 1.34 0 0.68 0 0 Z " fill="#12624E" transform="translate(131,429)"/>
<path d="M0 0 C2.64 0 5.28 0 8 0 C7.67 1.65 7.34 3.3 7 5 C6.67 4.34 6.34 3.68 6 3 C3.69 3 1.38 3 -1 3 C-0.67 2.01 -0.34 1.02 0 0 Z " fill="#1A191F" transform="translate(424,412)"/>
<path d="M0 0 C0.33 0 0.66 0 1 0 C1 6.27 1 12.54 1 19 C-2.375 14.5 -2.375 14.5 -2 10 C-1.34 10 -0.68 10 0 10 C0 6.7 0 3.4 0 0 Z " fill="#28262C" transform="translate(471,401)"/>
<path d="M0 0 C0.99 0 1.98 0 3 0 C1.33248852 3.94139078 -1.22710649 6.7892812 -4 10 C-4.66 9.01 -5.32 8.02 -6 7 C-5.566875 6.5875 -5.13375 6.175 -4.6875 5.75 C-2.92228822 4.01594622 -2.92228822 4.01594622 -1.5 1.8125 C-1.005 1.214375 -0.51 0.61625 0 0 Z " fill="#1A9987" transform="translate(171,379)"/>
<path d="M0 0 C0.66 0 1.32 0 2 0 C2.10251672 5.12583611 2.03590199 9.94997778 1 15 C0.67 15 0.34 15 0 15 C-0.19517554 13.06325815 -0.38087873 11.12555991 -0.5625 9.1875 C-0.66691406 8.10855469 -0.77132812 7.02960938 -0.87890625 5.91796875 C-1 3 -1 3 0 0 Z " fill="#19A586" transform="translate(200,359)"/>
<path d="M0 0 C0.33 0 0.66 0 1 0 C1.18451025 9.41002278 1.18451025 9.41002278 0 14 C-0.99 13.67 -1.98 13.34 -3 13 C-2.45144652 8.428721 -1.58255197 4.32564205 0 0 Z " fill="#2EC0AF" transform="translate(231,408)"/>
<path d="M0 0 C0.33 0.66 0.66 1.32 1 2 C1.66 2 2.32 2 3 2 C3 4.64 3 7.28 3 10 C2.34 10 1.68 10 1 10 C1 10.66 1 11.32 1 12 C0.34 12 -0.32 12 -1 12 C-0.9278125 11.38511719 -0.855625 10.77023437 -0.78125 10.13671875 C-0.64203125 8.92435547 -0.64203125 8.92435547 -0.5 7.6875 C-0.4071875 6.88699219 -0.314375 6.08648437 -0.21875 5.26171875 C0.04813463 2.88103445 0.04813463 2.88103445 0 0 Z " fill="#30C5B5" transform="translate(195,384)"/>
<path d="M0 0 C4.29 0 8.58 0 13 0 C9.00889681 1.9955516 7.30013434 2.19546065 3 2 C3 2.66 3 3.32 3 4 C2.01 3.67 1.02 3.34 0 3 C0 2.01 0 1.02 0 0 Z " fill="#26AD9A" transform="translate(107,430)"/>
<path d="M0 0 C0.33 0 0.66 0 1 0 C1 8.25 1 16.5 1 25 C0.67 25 0.34 25 0 25 C0 16.75 0 8.5 0 0 Z " fill="#000000" transform="translate(444,403)"/>
<path d="M0 0 C1.258125 -0.04125 2.51625 -0.0825 3.8125 -0.125 C4.52019531 -0.14820313 5.22789062 -0.17140625 5.95703125 -0.1953125 C8 0 8 0 11 2 C10.67 2.66 10.34 3.32 10 4 C9.01 4 8.02 4 7 4 C6.67 3.34 6.34 2.68 6 2 C4.68 2 3.36 2 2 2 C1.67 2.66 1.34 3.32 1 4 C0.34 3.67 -0.32 3.34 -1 3 C-0.67 2.01 -0.34 1.02 0 0 Z " fill="#1F1D29" transform="translate(383,399)"/>
<path d="M0 0 C3.17658845 3.17658845 5.17857636 6.56431237 6 11 C5.34 11 4.68 11 4 11 C4 10.34 4 9.68 4 9 C3.01 8.67 2.02 8.34 1 8 C-0.25 5.0625 -0.25 5.0625 -1 2 C-0.67 1.34 -0.34 0.68 0 0 Z " fill="#24C9AD" transform="translate(244,339)"/>
<path d="M0 0 C0.99 0.33 1.98 0.66 3 1 C1.625 3 1.625 3 0 5 C-0.66 5 -1.32 5 -2 5 C-2.33 5.99 -2.66 6.98 -3 8 C-3.99 7.34 -4.98 6.68 -6 6 C-4.625 4.5 -4.625 4.5 -3 3 C-2.34 3 -1.68 3 -1 3 C-0.67 2.01 -0.34 1.02 0 0 Z " fill="#1A886F" transform="translate(282,335)"/>
<path d="M0 0 C1.08667969 0.01804687 2.17335938 0.03609375 3.29296875 0.0546875 C4.54013672 0.08949219 4.54013672 0.08949219 5.8125 0.125 C5.8125 0.455 5.8125 0.785 5.8125 1.125 C3.5025 1.125 1.1925 1.125 -1.1875 1.125 C-1.1875 1.785 -1.1875 2.445 -1.1875 3.125 C-1.97125 3.08375 -2.755 3.0425 -3.5625 3 C-6.34866119 2.83771266 -6.34866119 2.83771266 -8.1875 5.125 C-8.5175 4.135 -8.8475 3.145 -9.1875 2.125 C-5.66070901 -0.22619399 -4.15870515 -0.08943452 0 0 Z " fill="#0CA689" transform="translate(95.1875,329.875)"/>
<path d="M0 0 C3.63 0.66 7.26 1.32 11 2 C7 4 7 4 3 4 C2.01 3.67 1.02 3.34 0 3 C0 2.01 0 1.02 0 0 Z " fill="#22232B" transform="translate(679,425)"/>
<path d="M0 0 C2 3 2 3 1.5625 5.5 C1.376875 6.325 1.19125 7.15 1 8 C1.33 8.99 1.66 9.98 2 11 C1.34 11 0.68 11 0 11 C-0.33 11.66 -0.66 12.32 -1 13 C-1.07654536 8.48382401 -1.10228696 4.40914783 0 0 Z " fill="#0A9984" transform="translate(201,415)"/>
<path d="M0 0 C0.66 0 1.32 0 2 0 C3.26026798 2.52053595 2.91874445 3.8542098 2.5625 6.625 C2.40974609 7.85089844 2.40974609 7.85089844 2.25390625 9.1015625 C2.17011719 9.72804688 2.08632813 10.35453125 2 11 C0 9 0 9 -0.1953125 6.8359375 C-0.17210937 6.02382813 -0.14890625 5.21171875 -0.125 4.375 C-0.10695313 3.55773437 -0.08890625 2.74046875 -0.0703125 1.8984375 C-0.04710937 1.27195312 -0.02390625 0.64546875 0 0 Z " fill="#222126" transform="translate(408,413)"/>
<path d="M0 0 C0.33 0 0.66 0 1 0 C0.67 2.97 0.34 5.94 0 9 C-0.66 9 -1.32 9 -2 9 C-3.4606285 6.35261084 -4 5.10551666 -4 2 C-3.01 2 -2.02 2 -1 2 C-0.67 1.34 -0.34 0.68 0 0 Z " fill="#1FAC96" transform="translate(194,404)"/>
<path d="M0 0 C0.33 0 0.66 0 1 0 C1 4.29 1 8.58 1 13 C-2 10 -2 10 -2.1875 6.8125 C-2.125625 5.884375 -2.06375 4.95625 -2 4 C-1.34 4 -0.68 4 0 4 C0 2.68 0 1.36 0 0 Z " fill="#32AA9D" transform="translate(60,350)"/>
<path d="M0 0 C0.5775 0.2475 1.155 0.495 1.75 0.75 C0.76 1.08 -0.23 1.41 -1.25 1.75 C-2.68948118 3.37882397 -2.68948118 3.37882397 -3.9375 5.3125 C-4.37449219 5.95316406 -4.81148437 6.59382813 -5.26171875 7.25390625 C-5.58785156 7.74761719 -5.91398438 8.24132812 -6.25 8.75 C-6.91 8.42 -7.57 8.09 -8.25 7.75 C-6.64613593 4.0076505 -4.56199942 -0.50688882 0 0 Z " fill="#078874" transform="translate(140.25,335.25)"/>
<path d="M0 0 C0.33 0.66 0.66 1.32 1 2 C1.66 2.33 2.32 2.66 3 3 C2.34 3 1.68 3 1 3 C1 5.64 1 8.28 1 11 C0.01 11 -0.98 11 -2 11 C-1.85957123 9.35369672 -1.71250671 7.70795821 -1.5625 6.0625 C-1.48128906 5.14597656 -1.40007812 4.22945313 -1.31640625 3.28515625 C-1 1 -1 1 0 0 Z " fill="#18A287" transform="translate(232,459)"/>
<path d="M0 0 C0.53625 0.28875 1.0725 0.5775 1.625 0.875 C4.35280484 2.16711808 7.12612718 3.08558592 10 4 C8.625 5.5 8.625 5.5 7 7 C6.34 7 5.68 7 5 7 C5 6.34 5 5.68 5 5 C4.01 4.67 3.02 4.34 2 4 C2 3.34 2 2.68 2 2 C1.34 2 0.68 2 0 2 C0 1.34 0 0.68 0 0 Z " fill="#282935" transform="translate(716,423)"/>
<path d="M0 0 C0.6875 1.8125 0.6875 1.8125 1 4 C-0.3125 5.75 -0.3125 5.75 -2 7 C-2.66 7 -3.32 7 -4 7 C-4.33 6.01 -4.66 5.02 -5 4 C-3.35 2.68 -1.7 1.36 0 0 Z " fill="#2A2B33" transform="translate(683,392)"/>
<path d="M0 0 C2.83374881 3.20336822 3.5205537 5.78087253 4 10 C3.34 10 2.68 10 2 10 C0.23537317 6.91190305 0 5.76687864 0 2 C-0.66 1.67 -1.32 1.34 -2 1 C-1.34 0.67 -0.68 0.34 0 0 Z " fill="#21BA9A" transform="translate(63,369)"/>
<path d="M0 0 C2.3125 0.8125 2.3125 0.8125 3.3125 2.8125 C2.02504964 3.20172918 0.73230403 3.57348036 -0.5625 3.9375 C-1.64144531 4.25074219 -1.64144531 4.25074219 -2.7421875 4.5703125 C-3.38414062 4.65023438 -4.02609375 4.73015625 -4.6875 4.8125 C-5.3475 4.1525 -6.0075 3.4925 -6.6875 2.8125 C-4.2961605 0.59829676 -3.32534138 -0.23200056 0 0 Z " fill="#23B67C" transform="translate(209.6875,339.1875)"/>
<path d="M0 0 C0.66 1.32 1.32 2.64 2 4 C0.35 5.32 -1.3 6.64 -3 8 C-3.36923077 3.44615385 -3.36923077 3.44615385 -1.5 1.1875 C-1.005 0.795625 -0.51 0.40375 0 0 Z " fill="#15A592" transform="translate(71,329)"/>
<path d="M0 0 C0.99 0 1.98 0 3 0 C3 3.63 3 7.26 3 11 C2.34 10.67 1.68 10.34 1 10 C1.020625 9.0925 1.04125 8.185 1.0625 7.25 C1.0110245 4.57327412 0.7784983 2.53011948 0 0 Z " fill="#28C9B8" transform="translate(213,432)"/>
<path d="M0 0 C1.6396875 0.0928125 1.6396875 0.0928125 3.3125 0.1875 C2.9825 1.1775 2.6525 2.1675 2.3125 3.1875 C-0.6575 3.1875 -3.6275 3.1875 -6.6875 3.1875 C-3.6875 0.1875 -3.6875 0.1875 0 0 Z " fill="#17181F" transform="translate(326.6875,426.8125)"/>
<path d="M0 0 C0.99 0 1.98 0 3 0 C5.49977543 3.33303391 6 4.73303602 6 9 C5.01 8.67 4.02 8.34 3 8 C2.4375 6.1875 2.4375 6.1875 2 4 C1.36345658 2.6520257 0.70394612 1.31403276 0 0 Z " fill="#14947F" transform="translate(185,420)"/>
<path d="M0 0 C3.63 0.66 7.26 1.32 11 2 C11 2.33 11 2.66 11 3 C6.545 3.495 6.545 3.495 2 4 C1.34 2.68 0.68 1.36 0 0 Z " fill="#23242B" transform="translate(683,411)"/>
<path d="M0 0 C3.34430737 0.72366315 5.34262343 1.81715496 8 4 C7.67 4.99 7.34 5.98 7 7 C6.34 7 5.68 7 5 7 C3.7109375 5.46875 3.7109375 5.46875 2.375 3.5 C1.70597656 2.52546875 1.70597656 2.52546875 1.0234375 1.53125 C0.68570312 1.0259375 0.34796875 0.520625 0 0 Z " fill="#26252C" transform="translate(397,395)"/>
<path d="M0 0 C7.57142857 1.85714286 7.57142857 1.85714286 10 5 C9.67 5.66 9.34 6.32 9 7 C7.2421875 5.99088542 5.484375 4.98177083 3.7265625 3.97265625 C2.50201525 3.28280949 1.25710923 2.62855462 0 2 C0 1.34 0 0.68 0 0 Z " fill="#1DA381" transform="translate(167,323)"/>
<path d="M0 0 C0.33 0.99 0.66 1.98 1 3 C0.01 3 -0.98 3 -2 3 C-2 3.66 -2 4.32 -2 5 C-6.625 7.125 -6.625 7.125 -10 6 C-9.34 6 -8.68 6 -8 6 C-7.67 5.01 -7.34 4.02 -7 3 C-5.125 2.4375 -5.125 2.4375 -3 2 C-2.01 1.34 -1.02 0.68 0 0 Z " fill="#28BAA7" transform="translate(143,321)"/>
<path d="M0 0 C2.31 1.98 4.62 3.96 7 6 C6.67 6.66 6.34 7.32 6 8 C4.125 7.375 4.125 7.375 2 6 C0.75 2.875 0.75 2.875 0 0 Z " fill="#19AC89" transform="translate(117,440)"/>
<path d="M0 0 C1.125 1.6875 1.125 1.6875 2 4 C1.375 6.6875 1.375 6.6875 0 9 C-2.125 9.8125 -2.125 9.8125 -4 10 C-3.625 8.0625 -3.625 8.0625 -3 6 C-2.34 5.67 -1.68 5.34 -1 5 C-0.34444881 2.47266765 -0.34444881 2.47266765 0 0 Z " fill="#222329" transform="translate(543,411)"/>
<path d="M0 0 C0 2.64 0 5.28 0 8 C-0.99 7.67 -1.98 7.34 -3 7 C-3.33 5.02 -3.66 3.04 -4 1 C-2 0 -2 0 0 0 Z " fill="#121218" transform="translate(711,393)"/>
<path d="M0 0 C0.9075 0.53625 1.815 1.0725 2.75 1.625 C-0.23241547 2.39821882 -3.22580475 3.03696203 -6.25 3.625 C-6.58 2.635 -6.91 1.645 -7.25 0.625 C-4.22502149 -1.58556122 -3.57040661 -1.51055664 0 0 Z " fill="#39BEAC" transform="translate(243.25,380.375)"/>
<path d="M0 0 C0.99 0 1.98 0 3 0 C3 0.66 3 1.32 3 2 C-2.47619048 7 -2.47619048 7 -5 7 C-5.33 6.01 -5.66 5.02 -6 4 C-4.7934375 3.566875 -4.7934375 3.566875 -3.5625 3.125 C-0.8673532 2.26737432 -0.8673532 2.26737432 0 0 Z " fill="#0D8E7F" transform="translate(129,346)"/>
<path d="M0 0 C0.66 0 1.32 0 2 0 C1.34 2.31 0.68 4.62 0 7 C-0.66 7 -1.32 7 -2 7 C-2.33 5.35 -2.66 3.7 -3 2 C-2.34 2 -1.68 2 -1 2 C-0.67 1.34 -0.34 0.68 0 0 Z " fill="#1DA38F" transform="translate(227,435)"/>
<path d="M0 0 C0.66 0 1.32 0 2 0 C2.08159574 4.16138263 1.98248524 7.9472484 1 12 C0.67 12 0.34 12 0 12 C-0.19401633 10.18818595 -0.38004375 8.37551468 -0.5625 6.5625 C-0.66691406 5.55316406 -0.77132812 4.54382813 -0.87890625 3.50390625 C-0.91886719 2.67761719 -0.95882812 1.85132813 -1 1 C-0.67 0.67 -0.34 0.34 0 0 Z " fill="#1C9E87" transform="translate(232,402)"/>
<path d="M0 0 C2.31 0.33 4.62 0.66 7 1 C5 3 5 3 2.3984375 3.1953125 C1.40070312 3.17210937 0.40296875 3.14890625 -0.625 3.125 C-2.12933594 3.09792969 -2.12933594 3.09792969 -3.6640625 3.0703125 C-4.43492187 3.04710937 -5.20578125 3.02390625 -6 3 C-6 2.67 -6 2.34 -6 2 C-4.02 2 -2.04 2 0 2 C0 1.34 0 0.68 0 0 Z " fill="#1A1A34" transform="translate(642,398)"/>
<path d="M0 0 C2.64 0 5.28 0 8 0 C8.33 0.99 8.66 1.98 9 3 C6.03 3 3.06 3 0 3 C0 2.01 0 1.02 0 0 Z " fill="#18181E" transform="translate(514,390)"/>
<path d="M0 0 C2.97 0 5.94 0 9 0 C5.71536341 2.18975773 2.79303725 2.99806563 -1 4 C-0.67 2.68 -0.34 1.36 0 0 Z " fill="#26292F" transform="translate(352,379)"/>
<path d="M0 0 C2.88575819 0.39803561 3.82189513 0.79009069 5.75 3.0625 C6.1625 3.701875 6.575 4.34125 7 5 C6.01 5.33 5.02 5.66 4 6 C2.62437146 4.71034824 1.29233607 3.37310707 0 2 C0 1.34 0 0.68 0 0 Z " fill="#128A78" transform="translate(256,356)"/>
<path d="M0 0 C0.33 1.32 0.66 2.64 1 4 C-1.31 4.66 -3.62 5.32 -6 6 C-6 5.01 -6 4.02 -6 3 C-5.195625 2.690625 -4.39125 2.38125 -3.5625 2.0625 C-1.10919595 1.23664655 -1.10919595 1.23664655 0 0 Z " fill="#17A273" transform="translate(199,428)"/>
<path d="M0 0 C2.64 0 5.28 0 8 0 C8.33 1.65 8.66 3.3 9 5 C8.67 4.34 8.34 3.68 8 3 C7.236875 3.061875 6.47375 3.12375 5.6875 3.1875 C3 3 3 3 1.1875 1.5 C0.5996875 0.7575 0.5996875 0.7575 0 0 Z " fill="#0FB058" transform="translate(181,403)"/>
<path d="M0 0 C0.99 0 1.98 0 3 0 C3 3.63 3 7.26 3 11 C2.01 11.495 2.01 11.495 1 12 C0.67 8.04 0.34 4.08 0 0 Z " fill="#13977D" transform="translate(216,371)"/>
<path d="M0 0 C0.33 0 0.66 0 1 0 C1 2.97 1 5.94 1 9 C0.01 8.67 -0.98 8.34 -2 8 C-2.20086443 4.28400809 -2.1519437 3.22791555 0 0 Z " fill="#2EBCA8" transform="translate(228,426)"/>
<path d="M0 0 C0.99 0.66 1.98 1.32 3 2 C-2.75 5 -2.75 5 -5 5 C-4.1875 3.0625 -4.1875 3.0625 -3 1 C-2.01 0.67 -1.02 0.34 0 0 Z " fill="#1C1D2F" transform="translate(594,417)"/>
<path d="M0 0 C1.32 0.33 2.64 0.66 4 1 C4.33 2.65 4.66 4.3 5 6 C4.34 6 3.68 6 3 6 C3 5.34 3 4.68 3 4 C2.34 4 1.68 4 1 4 C0.67 2.68 0.34 1.36 0 0 Z " fill="#11A48E" transform="translate(69,384)"/>
<path d="M0 0 C0.66 0 1.32 0 2 0 C2 2.64 2 5.28 2 8 C0.4375 6.8125 0.4375 6.8125 -1 5 C-0.6875 2.3125 -0.6875 2.3125 0 0 Z " fill="#1C1C25" transform="translate(659,379)"/>
<path d="M0 0 C0.66 0 1.32 0 2 0 C1.67 2.64 1.34 5.28 1 8 C-0.32 7.67 -1.64 7.34 -3 7 C-2.505 6.030625 -2.01 5.06125 -1.5 4.0625 C0.07331124 1.41867592 0.07331124 1.41867592 0 0 Z " fill="#3BC5B4" transform="translate(63,338)"/>
<path d="M0 0 C0 0.99 0 1.98 0 3 C-2.64 3.33 -5.28 3.66 -8 4 C-5.57415142 1.34311822 -3.76063134 0 0 0 Z " fill="#28BF9F" transform="translate(90,320)"/>
<path d="M0 0 C0.66 0 1.32 0 2 0 C1.67 0.99 1.34 1.98 1 3 C1.33 3.99 1.66 4.98 2 6 C1.01 6.99 0.02 7.98 -1 9 C-1.09765625 2.84765625 -1.09765625 2.84765625 -1 1 C-0.67 0.67 -0.34 0.34 0 0 Z " fill="#099D88" transform="translate(219,383)"/>
<path d="M0 0 C1.32 0 2.64 0 4 0 C4 0.66 4 1.32 4 2 C1.625 3.6875 1.625 3.6875 -1 5 C-1.66 4.67 -2.32 4.34 -3 4 C-2.67 3.34 -2.34 2.68 -2 2 C-1.34 2 -0.68 2 0 2 C0 1.34 0 0.68 0 0 Z " fill="#292933" transform="translate(663,374)"/>
<path d="M0 0 C0.33 0 0.66 0 1 0 C1 1.98 1 3.96 1 6 C0.67 6 0.34 6 0 6 C0 4.02 0 2.04 0 0 Z " fill="#0A0A0A" transform="translate(483,385)"/>
<path d="M0 0 C1 4 1 4 1 4 Z " fill="#00BDBD" transform="translate(216,456)"/>
<path d="M0 0 C4 1 4 1 4 1 Z " fill="#000000" transform="translate(636,415)"/>
<path d="M0 0 C1 4 1 4 1 4 Z " fill="#000000" transform="translate(366,408)"/>
<path d="M0 0 C1 4 1 4 1 4 Z " fill="#00A580" transform="translate(222,401)"/>
<path d="M0 0 C1 4 1 4 1 4 Z " fill="#00C8C8" transform="translate(209,400)"/>
<path d="M0 0 C4 1 4 1 4 1 Z " fill="#000000" transform="translate(385,401)"/>
<path d="M0 0 C1 4 1 4 1 4 Z " fill="#008E8E" transform="translate(219,375)"/>
<path d="" fill="#008253" transform="translate(0,0)"/>
<path d="" fill="#00AAAA" transform="translate(0,0)"/>
<path d="" fill="#00FFAA" transform="translate(0,0)"/>
<path d="M0 0 C3 1 3 1 3 1 Z " fill="#000000" transform="translate(689,415)"/>
<path d="M0 0 C3 1 3 1 3 1 Z " fill="#000000" transform="translate(608,405)"/>
<path d="M0 0 C3 1 3 1 3 1 Z " fill="#000021" transform="translate(610,401)"/>
<path d="" fill="#000000" transform="translate(0,0)"/>
<path d="M0 0 C3 1 3 1 3 1 Z " fill="#00D2A4" transform="translate(147,333)"/>
<path d="M0 0 C3 1 3 1 3 1 Z " fill="#00DA88" transform="translate(101,333)"/>
<path d="" fill="#008282" transform="translate(0,0)"/>
<path d="" fill="#2D2D57" transform="translate(0,0)"/>
<path d="" fill="#343434" transform="translate(0,0)"/>
<path d="" fill="#000062" transform="translate(0,0)"/>
<path d="M0 0 C2 1 2 1 2 1 Z " fill="#000000" transform="translate(603,415)"/>
<path d="" fill="#000000" transform="translate(0,0)"/>
<path d="" fill="#00FFFF" transform="translate(0,0)"/>
<path d="M0 0 C2 1 2 1 2 1 Z " fill="#000000" transform="translate(695,405)"/>
<path d="M0 0 C2 1 2 1 2 1 Z " fill="#000039" transform="translate(642,405)"/>
<path d="M0 0 C2 1 2 1 2 1 Z " fill="#00001B" transform="translate(698,401)"/>
<path d="M0 0 C2 1 2 1 2 1 Z " fill="#000000" transform="translate(645,401)"/>
<path d="M0 0 C2 1 2 1 2 1 Z " fill="#000000" transform="translate(701,391)"/>
<path d="M0 0 C2 1 2 1 2 1 Z " fill="#000000" transform="translate(648,391)"/>
<path d="M0 0 C2 1 2 1 2 1 Z " fill="#000000" transform="translate(614,391)"/>
<path d="" fill="#005454" transform="translate(0,0)"/>
<path d="" fill="#00AC53" transform="translate(0,0)"/>
<path d="" fill="#00BB43" transform="translate(0,0)"/>
<path d="" fill="#00FF7F" transform="translate(0,0)"/>
<path d="" fill="#00FF91" transform="translate(0,0)"/>
<path d="" fill="#00FC7F" transform="translate(0,0)"/>
<path d="" fill="#008989" transform="translate(0,0)"/>
<path d="M0 0 C2 1 2 1 2 1 Z " fill="#00C13E" transform="translate(89,333)"/>
<path d="" fill="#00FFFF" transform="translate(0,0)"/>
<path d="" fill="#000000" transform="translate(0,0)"/>
<path d="" fill="#000000" transform="translate(0,0)"/>
<path d="" fill="#000000" transform="translate(0,0)"/>
<path d="" fill="#000000" transform="translate(0,0)"/>
<path d="" fill="#000000" transform="translate(0,0)"/>
<path d="" fill="#000000" transform="translate(0,0)"/>
<path d="" fill="#000000" transform="translate(0,0)"/>
<path d="" fill="#000000" transform="translate(0,0)"/>
<path d="" fill="#000000" transform="translate(0,0)"/>
<path d="" fill="#008A8A" transform="translate(0,0)"/>
<path d="" fill="#000000" transform="translate(0,0)"/>
<path d="" fill="#000000" transform="translate(0,0)"/>
<path d="" fill="#000000" transform="translate(0,0)"/>
<path d="" fill="#000000" transform="translate(0,0)"/>
<path d="" fill="#000000" transform="translate(0,0)"/>
<path d="" fill="#000000" transform="translate(0,0)"/>
<path d="" fill="#000000" transform="translate(0,0)"/>
<path d="" fill="#5A4B5A" transform="translate(0,0)"/>
<path d="" fill="#000000" transform="translate(0,0)"/>
<path d="" fill="#000000" transform="translate(0,0)"/>
<path d="" fill="#000000" transform="translate(0,0)"/>
<path d="" fill="#000000" transform="translate(0,0)"/>
<path d="" fill="#000000" transform="translate(0,0)"/>
<path d="" fill="#000000" transform="translate(0,0)"/>
<path d="" fill="#000000" transform="translate(0,0)"/>
<path d="" fill="#000000" transform="translate(0,0)"/>
<path d="" fill="#000000" transform="translate(0,0)"/>
<path d="" fill="#000000" transform="translate(0,0)"/>
<path d="" fill="#000000" transform="translate(0,0)"/>
<path d="" fill="#000000" transform="translate(0,0)"/>
<path d="" fill="#000000" transform="translate(0,0)"/>
<path d="" fill="#00FF00" transform="translate(0,0)"/>
<path d="" fill="#006B00" transform="translate(0,0)"/>
<path d="" fill="#00FFFF" transform="translate(0,0)"/>
<path d="" fill="#00FFFF" transform="translate(0,0)"/>
<path d="" fill="#009D9D" transform="translate(0,0)"/>
<path d="" fill="#00FF00" transform="translate(0,0)"/>
<path d="" fill="#00AF50" transform="translate(0,0)"/>
<path d="" fill="#00FFFF" transform="translate(0,0)"/>
<path d="" fill="#00FF00" transform="translate(0,0)"/>
<path d="" fill="#00FF00" transform="translate(0,0)"/>
<path d="" fill="#00FFFF" transform="translate(0,0)"/>
<path d="" fill="#003838" transform="translate(0,0)"/>
<path d="" fill="#008080" transform="translate(0,0)"/>
<path d="" fill="#00BDBD" transform="translate(0,0)"/>
</svg>
